<svg xmlns="http://www.w3.org/2000/svg" width="801.8" height="595.575" viewBox="0 0 801.8 595.575">
  <g id="undraw_connected_world_wuay" transform="translate(0)">
    <path id="Path_82" data-name="Path 82" d="M750.366,157.787c-91-126.635-283.24-178-472.3-122.678C178.114,64.357,81.743,122.961,33.984,236.438c-85.375,202.851,93.88,267.636,211.093,288.284,56.678,9.984,110.059,26.756,158.839,49.59,87.76,41.081,243.1,77.483,360.235-93.638C849.054,356.646,810.988,242.138,750.366,157.787Z" transform="translate(-11.697 -13.011)" fill="none"/>
    <path id="Path_83" data-name="Path 83" d="M266.638,256.738a26.589,26.589,0,0,0-1.738-6.654,3.012,3.012,0,0,0-1.531-1.886,3.155,3.155,0,0,0-1.519-.017l-7.8,1.194a2.99,2.99,0,0,0-1.78.691c-1.016,1.068-.016,2.789-.047,4.263a4.007,4.007,0,0,1-3.1,3.448,11.736,11.736,0,0,1-4.933-.061l-10.907-1.695a17.983,17.983,0,0,0,8.251-5.506c1.435-1.7,2.2-4.875.125-5.68a5.092,5.092,0,0,0-1.894-.152c-4.942.038-8.83-4.087-13.456-5.825a14.878,14.878,0,0,0-16.744,4.992l5.81.28a2.579,2.579,0,0,1,1.548.413c1.273,1.046-.31,3.056-.13,4.694.233,2.128,3.059,2.583,5.189,2.8s4.833,1.946,3.808,3.826c-10.707,3.688-21.6-7.209-32.847-5.868-2.846.339-5.533,1.458-8.312,2.161-16.973,4.295-34.521-7.164-51.86-4.737a65.853,65.853,0,0,0-11.321,2.986c-2.36.775-4.821,1.612-6.536,3.409s-2.367,4.87-.743,6.749a37.986,37.986,0,0,1-13.312-1.265,7.458,7.458,0,0,1,3.834,6.573,78.985,78.985,0,0,0-20.234,6.17,34.078,34.078,0,0,0,4.188,5.579l-8.85,5.686a5.051,5.051,0,0,1,2.8,7.377c3.1-1.379,5.022-4.947,8.337-5.671,2.172-.474,4.382.415,6.442,1.249s4.325,1.644,6.458,1.018,3.706-3.392,2.351-5.154a110.359,110.359,0,0,1,28.033-4.38,3.516,3.516,0,0,1,2.123.4c1.236.857.911,2.709.844,4.212s1.1,3.478,2.448,2.8c-1.58,1.37-.229,3.95,1.287,5.39s3.343,3.429,2.415,5.3c-.242.489-.653.881-.886,1.374-.688,1.457.4,3.155,1.693,4.123s2.866,1.644,3.761,2.983.489,3.685-1.112,3.872l-4.549-5.775a11.841,11.841,0,0,0-3.073,5.823,12.218,12.218,0,0,1,1.511,16.713c-2.064,2.424-5,3.9-7.559,5.788s-4.931,4.584-4.925,7.767c.011,5.5-.438,10.61,1.623,15.71a241.994,241.994,0,0,0,13.138,27.41c1.3,2.325,2.979,4.872,5.612,5.273q-4.991-12.151-8.986-24.68c1.735.007,3.739.145,4.756,1.55.842,1.164.661,2.746.923,4.158A12.882,12.882,0,0,0,146.9,371.8l15.89,28.3c1.317,2.346,2.828,4.865,5.346,5.815,1.61.608,3.472.493,4.953,1.368,1.161.686,1.943,1.9,3.127,2.548,3.347,1.826,8-1.676,11.13.5a31.322,31.322,0,0,1,2.288,2.327c2.889,2.5,7.628.828,10.964,2.695,2.149,1.2,3.263,3.609,4.41,5.789,2.872,5.461,7.519,10.811,13.673,11.246,1.933.137,3.908-.23,5.8.2s3.75,2.079,3.447,3.993c-.52,3.282,1.1,6.875.666,10.169-.793,6-9.3,8.637-10.035,14.645a33.989,33.989,0,0,1-.223,3.961c-.384,1.578-1.569,2.863-1.99,4.432-.8,2.973,1.332,5.931,3.671,7.931s5.13,3.724,6.409,6.524c1.352,2.959.688,6.409,1.128,9.632.96,7.037,7.038,12.254,13.293,15.617,1.906,1.025,3.952,2.017,5.186,3.795,1.61,2.32,1.45,5.38,1.987,8.152,1.317,6.79,7.033,12.385,7.2,19.3.115,4.915-2.617,9.374-4.249,14.011a32.675,32.675,0,0,0,2.668,27.1,43.4,43.4,0,0,1,3.545,6.24c1.541,3.988,1.041,8.522,2.462,12.554,1.879,5.331,7.041,9.735,6.547,15.366,2.344,4.867,7.519,7.258,12.723,8.707l9.327,2.6a11.985,11.985,0,0,0,5.47.638c1.818-.36,3.554-1.87,3.507-3.723-4.574-1.031-9.294-2.128-13.064-4.915s-6.353-7.75-4.922-12.215c.663-2.07,2.074-4.461.733-6.172-.768-.979-2.173-1.235-3.039-2.129-1.351-1.394-.887-3.736.084-5.417s2.376-3.183,2.768-5.085a5.305,5.305,0,0,0-2.487-5.519,13.186,13.186,0,0,0,4.616-2.962,4.5,4.5,0,0,0,.82-5.1c2.836.36,6.184.536,8.046-1.634,1.487-1.732,1.384-4.322.8-6.528s-1.58-4.348-1.611-6.631a120.856,120.856,0,0,0,19.6-.665,12.711,12.711,0,0,0-5.96-7.465c2.947-.5,5.631-4.026,6.562-6.866a17.665,17.665,0,0,0,.118-8.865,4.757,4.757,0,0,1-.088-2.323,4.527,4.527,0,0,1,2.332-2.255l14.626-8.4a8.519,8.519,0,0,0,2.339-1.727c1.532-1.8,1.305-4.517.521-6.747s-2.041-4.327-2.344-6.671c-.9-7.012,6.6-12.042,9.135-18.642a28.091,28.091,0,0,0,1.389-8.173c.207-2.973.222-6.425-2.06-8.341-2.188-1.836-5.606-1.427-7.9-3.135-2.1-1.566-2.823-4.607-5.116-5.872-2.082-1.149-4.693-.418-7.009-.958-4.078-.951-6.644-5.651-10.809-6.086-2.35-.246-5.009.9-6.935-.465-1.7-1.206-1.765-3.629-2.088-5.686a15.879,15.879,0,0,0-12.816-12.858c-2.423-.389-5.06-.241-7.121-1.572-2.087-1.348-3.044-3.872-4.683-5.739-2.642-3.009-6.8-4.078-10.7-4.995L245.089,421.7c-2.815-.662-6.443-1.013-7.953,1.453a11.4,11.4,0,0,0-.941,2.959,9.163,9.163,0,0,1-8.617,6.486,10.191,10.191,0,0,0-6.009-4.65c-1.608-.448-3.329-.5-4.862-1.157a6.83,6.83,0,0,1-2.964-9.474,8.5,8.5,0,0,0-1.453-10.226c-2.7-2.421-6.6-3.006-10.213-2.763-.947-2.066.636-4.4,2.343-5.9s3.778-2.978,4.15-5.22c.584-3.527-3.916-6.206-7.333-5.154s-5.6,4.371-7.04,7.642a22.5,22.5,0,0,1-2.835,5.437c-1.3,1.583-3.406,2.716-5.393,2.208-2.814-.719-3.9-4.062-4.523-6.9a44.865,44.865,0,0,1-1.5-11.557c.175-3.892,1.487-7.889,4.358-10.524,4.677-4.294,11.852-3.873,18.165-3.188a4.613,4.613,0,0,1,.473-6.094,6.928,6.928,0,0,1,6.279-1.543,8.654,8.654,0,0,1,4.865,2.909c1.794,2.187,2.3,5.14,3.66,7.622s4.4,4.6,6.9,3.268c2.155-1.15,2.5-4.139,1.961-6.523s-1.676-4.7-1.481-7.137c.371-4.647,5.188-7.444,9.439-9.358s9.118-4.488,9.792-9.1a8.3,8.3,0,0,1,.5-2.645,5.188,5.188,0,0,1,1.9-1.79c12.406-8.2,25.018-16.5,39.2-20.977.738-.233.824.026,1.576-.157,1.052-.608.355-2.29-.654-2.968s-2.357-1.2-2.613-2.385c-.188-.873.326-1.731.46-2.614a3.264,3.264,0,0,0-4.285-3.307c-1.139-1.508,1.115-3.261,2.937-3.763a79.762,79.762,0,0,1,16.757-2.737,3.019,3.019,0,0,1,1.907.324c.952.659.83,2.172.156,3.113a18.317,18.317,0,0,1-2.564,2.328,7,7,0,0,0-1.816,7.04c2.958,1.5,6.175,3.054,9.451,2.524s6.185-4.212,4.645-7.152c-1.434-2.738-5.742-3.356-6.483-6.357-.867-3.513,4.106-6.638,2.986-10.08-.491-1.507-1.993-2.394-3.146-3.483a9.45,9.45,0,0,1-2.068-10.479,11.922,11.922,0,0,1-10.456-3.272c-2.5-2.524-4.5-6.506-8.048-6.393-3.259.1-6.066,3.906-9.114,2.746-.75-.285-1.54-.866-2.267-.526a1.873,1.873,0,0,0-.846,1.4c-.774,3.7.558,7.921-1.46,11.121-2.2,3.482-7.275,3.964-9.938,7.1-1.445,1.7-2.005,4-3.333,5.8s-4.148,2.939-5.742,1.373a7.914,7.914,0,0,0-2.15-9.623,21.115,21.115,0,0,0-4.749-2.31,28.164,28.164,0,0,1-5.305-2.957,5.225,5.225,0,0,1-1.948-2.084,4.749,4.749,0,0,1,.133-3.3,13.474,13.474,0,0,1,10.723-8.888c2.122-.289,4.593-.187,6-1.8.743-.856,1.133-2.149,2.212-2.5a3.263,3.263,0,0,1,2.042.251l7.922,2.788a5.56,5.56,0,0,0,2.822.467,1.913,1.913,0,0,0,1.655-2.011c-.253-1.316-2.277-1.947-2.093-3.274a2.186,2.186,0,0,1,.663-1.115,28.323,28.323,0,0,1,22.464-8.871c1,1.642-.581,3.587-1.9,4.989s-2.373,3.907-.782,4.986a4.363,4.363,0,0,0,2.109.475,18.417,18.417,0,0,1,5.614,1.7q4.106,1.787,8.055,3.911a10.212,10.212,0,0,1,.2-5.187c.658-1.623,2.528-2.9,4.161-2.264,1.574.609,2.381,2.693,4.058,2.884,2.237.255,3.119-3.05,2.185-5.1s-2.784-3.763-2.938-6.009c-.1-1.515.472-3.395-.738-4.312a3.3,3.3,0,0,0-1.428-.5L280.771,243.8c-1.795-.33-4.388-.077-4.467,1.746-.044,1.018.865,2.024.462,2.96-.43,1-1.841.907-2.869,1.26a3.922,3.922,0,0,0-2.243,4.122,11.47,11.47,0,0,0,1.893,4.645C271.58,257.712,268.6,257.56,266.638,256.738Z" transform="translate(-27.137 -112.883)" fill="#3f3d56"/>
    <path id="Path_84" data-name="Path 84" d="M286.9,228.906a9.786,9.786,0,0,0-10.75,3.219,2.153,2.153,0,0,0-.5,2.268c.6,1.017,2.119.615,3.241.252a8.157,8.157,0,0,1,5.119-.122c1.054.362,2,1,3.054,1.349a3.076,3.076,0,0,0,3.136-.458,4.083,4.083,0,0,0,.773-2.929,2.356,2.356,0,0,0-.6-1.936,3.078,3.078,0,0,0-1.388-.411,4.782,4.782,0,0,1-2.8-1.635" transform="translate(-96.143 -81.853)" fill="#3f3d56"/>
    <path id="Path_85" data-name="Path 85" d="M303.567,225.126a2.49,2.49,0,0,0-2.406,3.506,10.091,10.091,0,0,0,4.023.262A3.439,3.439,0,0,0,308,226.316a6.474,6.474,0,0,1-4.584-.875" transform="translate(-104.043 -80.69)" fill="#3f3d56"/>
    <path id="Path_86" data-name="Path 86" d="M348.595,217.607a46.281,46.281,0,0,0-10.317,3.5,7.751,7.751,0,0,1,4.951,7.785,4.054,4.054,0,0,0,.047,1.925c.379.919,1.477,1.263,2.442,1.5a16.1,16.1,0,0,0,5.356.684,5.456,5.456,0,0,0,4.434-2.709,19.308,19.308,0,0,1,.922-2.179c2.314-3.524,9.187.737,11.671-2.669.875-1.2.8-3.006,1.936-3.956a4.349,4.349,0,0,1,1.99-.759,139.742,139.742,0,0,1,15.116-2.153c2.4-.209,5.538-1.072,5.558-3.486a41.871,41.871,0,0,0-26.709,3.593c-2.977,1.491-6.915,4.628-9.783,2.651-1.074-.74-1.021-2.734-2.5-3.566C352.2,216.92,350.2,217.266,348.595,217.607Z" transform="translate(-117.636 -77.66)" fill="#3f3d56"/>
    <path id="Path_87" data-name="Path 87" d="M389.479,223.012l4.251.817A5.509,5.509,0,0,0,388,229.8c3.981,1.33,8.321.036,12.514.213s9.072,3.172,8.356,7.308c-.216,1.25-.939,2.5-.563,3.712a13.82,13.82,0,0,0,1.436,2.235c.881,1.631.177,3.693-.936,5.175s-2.609,2.665-3.585,4.24c-2.429,3.918-1.049,8.983.4,13.359a11.777,11.777,0,0,0,2.265,4.523c2.144,2.28,5.638,2.478,8.767,2.524,2.278.033,4.887-.079,6.327-1.844,1.88-2.3.566-5.9,1.8-8.6,1.124-2.456,3.989-3.509,6.584-4.256,4.755-1.369,9.6-2.533,14.1-4.6,5.582-2.567,10.8-6.569,16.934-6.9a23.243,23.243,0,0,0,5.143-.361c1.658-.472,3.233-1.9,3.107-3.624-.107-1.469-1.35-2.548-2.321-3.655s-1.734-2.81-.841-3.982l16.081-3c-1.14-3.106-2.028-7.2.591-9.22.945-.73,2.21-1.021,3.015-1.9,1.371-1.5.682-4.093-.9-5.371s-3.724-1.575-5.752-1.744a154.317,154.317,0,0,0-21.208.189l-41.431,2.271c-2.78.152-5.99-.08-8.54.868-2.159.8-3.693,2.277-6.162,2.795C398.619,221.1,393.6,220.453,389.479,223.012Z" transform="translate(-135.822 -78.721)" fill="#3f3d56"/>
    <path id="Path_88" data-name="Path 88" d="M487.894,268.279a1.71,1.71,0,0,0-1.237.281,1.562,1.562,0,0,0-.4.954,6.3,6.3,0,0,0,.915,4.51,4.416,4.416,0,0,0,4.043,1.938c1.914-.244,3.325-1.877,5.084-2.674,2.712-1.227,14.23-3.14,6.263-7.444-2.746-1.483-4.52-.174-6.684.8a15.208,15.208,0,0,1-7.98,1.632Z" transform="translate(-163.773 -93.713)" fill="#3f3d56"/>
    <path id="Path_89" data-name="Path 89" d="M577.938,221.793a4.549,4.549,0,0,0-2.213,1.927,1.944,1.944,0,0,0,.729,2.579,2.9,2.9,0,0,0,1.085.172l3.783.113c1.607.048,3.614.39,4.046,1.939.321,1.15-.4,2.628.469,3.449a2.439,2.439,0,0,0,1.287.5,8.769,8.769,0,0,0,3.812.123c2.752-.738,1.306-2.418,2.173-3.914,1.326-2.289,1.1-.9,3.434-2.215,1.726-.969,3.956-2.726,2.516-5.195C596.553,216.979,581.635,219.949,577.938,221.793Z" transform="translate(-192.699 -79.04)" fill="#3f3d56"/>
    <path id="Path_90" data-name="Path 90" d="M670.256,219.68l-2.2.293a88.486,88.486,0,0,0-14.706,2.816,24.477,24.477,0,0,0,6.44,1.58,19.78,19.78,0,0,1,3.607.513c2.107.627,4.231,2.247,6.266,1.417,1.262-.515,1.674-1.829,2.72-2.525.722-.481,3.46-1.259,3.767-1.745C678.628,218.1,672.158,219.426,670.256,219.68Z" transform="translate(-217.647 -78.917)" fill="#3f3d56"/>
    <path id="Path_91" data-name="Path 91" d="M684.723,232.116a41.192,41.192,0,0,0-8.106,5.936c-1.032.97-2.086,2.177-1.993,3.59.124,1.879,2.125,2.968,3.859,3.7l7.022,2.973c.852-1.2.072-2.858-.808-4.038s-1.927-2.545-1.538-3.965c.444-1.62,2.419-2.172,4.076-2.452,2.7-.455,9.981-.418,9.106-4.768C695.31,227.969,687.432,230.6,684.723,232.116Z" transform="translate(-224.363 -82.71)" fill="#3f3d56"/>
    <path id="Path_92" data-name="Path 92" d="M685.72,599.23a6.7,6.7,0,0,0,.424,5.9,5.983,5.983,0,0,0,6.141,2.122,11.063,11.063,0,0,0,5.7-3.666,19.638,19.638,0,0,0,3.279-5.029,39.258,39.258,0,0,0,2.431-8.894l2.18-11.447c.487-2.558.468-10.4-4.234-7.846-1.285.7-4.259,6.21-5.605,7.773-2.426,2.817-2.747,5.551-4.025,8.964C690.414,591.386,687.2,594.949,685.72,599.23Z" transform="translate(-227.702 -193.403)" fill="#3f3d56"/>
    <path id="Path_93" data-name="Path 93" d="M1005.066,682.973a34.288,34.288,0,0,1-4.468-2.127,37.662,37.662,0,0,0-2.265,12.345l10.529-5.958c1.584-.9,3.379-2.141,3.345-3.961a1.253,1.253,0,0,0-.582-1.139,1.42,1.42,0,0,0-.738-.086,17.82,17.82,0,0,0-4.457,1.432,5.441,5.441,0,0,1-4.546.024" transform="translate(-343.427 -226.889)" fill="#3f3d56"/>
    <path id="Path_94" data-name="Path 94" d="M1073.869,687.093a22.781,22.781,0,0,0-3.376,1.212c-2.416,1.229-4.06,3.564-6.234,5.183a24.73,24.73,0,0,1-7.044,3.227,1.689,1.689,0,0,0,.394,2.489,4.883,4.883,0,0,0,2.781.625c2.554.056,5.246.081,7.483-1.153a23.61,23.61,0,0,0,3.523-2.8,37.306,37.306,0,0,1,8.867-5.014,10.179,10.179,0,0,0,3.091-1.848c1.954-1.925,2.091-4.9-.726-5.55C1080.349,682.937,1076.034,686.391,1073.869,687.093Z" transform="translate(-356.687 -228.1)" fill="#3f3d56"/>
    <path id="Path_95" data-name="Path 95" d="M1107.87,665.331a8.783,8.783,0,0,0-2.687-7.2c-.029,2.65-.109,5.474-1.6,7.666-1.062,1.562-2.728,2.617-3.891,4.1s-1.68,3.845-.315,5.151a5.115,5.115,0,0,0,3.031,1.044c2.717.32,5.862.5,7.768-1.465,1.04-1.071,1.546-2.658,2.815-3.446a3.423,3.423,0,0,0,1.235-.884c.524-.833-.308-1.93-1.245-2.23s-1.969-.159-2.911-.444-1.805-1.344-1.322-2.2" transform="translate(-366.153 -220.149)" fill="#3f3d56"/>
    <path id="Path_96" data-name="Path 96" d="M1041.706,539.089a12.213,12.213,0,0,1-4.358.257c-2.419-.445-4.3-2.268-6.254-3.763a27.588,27.588,0,0,0-16.119-5.632c-5.306-.1-10.662,1.338-15.874.335a6.262,6.262,0,0,0,3.69,4.159c1.729.844,3.638,1.269,5.375,2.1a12.833,12.833,0,0,1,6.216,6.467,18.262,18.262,0,0,0,1.759,3.868c1.733,2.331,5.017,2.843,7.915,2.652,3.779-.249,7.725-1.335,11.241.072,2.689,1.077,4.614,3.431,6.859,5.261s5.408,3.189,7.987,1.868a13.2,13.2,0,0,1-9.135-12.7c2.529.233,9.813.143,9.42-4.154C1050.1,536.23,1043.879,538.7,1041.706,539.089Z" transform="translate(-343.601 -179.678)" fill="#3f3d56"/>
    <path id="Path_97" data-name="Path 97" d="M989.273,576.433c.449-2.463,2.9-4.637,2.14-7.021-.529-1.648-2.44-2.462-4.171-2.5s-3.431.475-5.161.523a25.165,25.165,0,0,0-3.38.048c-3.435.565-5.552,4.165-8.79,5.445-1.968.778-4.18.63-6.227,1.168-4.647,1.222-7.588,5.613-10.836,9.153a38.671,38.671,0,0,1-19.628,11.447c-2.642.612-5.483,1-7.583,2.719-2.781,2.273-3.466,6.168-4.085,9.706a160.318,160.318,0,0,1-7.8,28.65l11.035,1.409a15,15,0,0,0,6.293-.091,18.272,18.272,0,0,0,4.14-2.2,41.324,41.324,0,0,1,16.145-5.828,17.142,17.142,0,0,1,8.631.6c2.712,1.074,5.038,3.51,5.265,6.418a6.779,6.779,0,0,1,6.775,1.648,11.777,11.777,0,0,1,3.235,6.457c.291,1.51.581,3.319,1.982,3.952,1.143.517,2.454-.04,3.7-.14,4.242-.339,7.763,4.607,11.933,3.755,4.472-.914,5.57-7.611,9.933-8.953,2.506-.771,6.021.166,7.22-2.164,1.058-2.054-1.052-4.425-.835-6.726.268-2.833,3.609-4.035,6.185-5.243,8.88-4.167,13.094-16.118,8.791-24.933-2.549-5.223-7.566-9.334-8.493-15.071-.713-4.414,1.027-9.562-1.787-13.036-1.432-1.768-3.856-2.743-4.708-4.852-.536-1.328-.321-2.834-.609-4.236s-1.512-2.869-2.9-2.506c-4.02,1.055-5.3,13.474-7.455,16.491C994.956,585.1,988.237,582.084,989.273,576.433Z" transform="translate(-324.247 -196.078)" fill="#3f3d56"/>
    <path id="Path_98" data-name="Path 98" d="M913.646,547.694a6.471,6.471,0,0,0-4.19-.214c-1.316.55-2.085,2.483-1.029,3.442,8.265-.322,16.58-.642,24.775.481,9.442,1.293,18.785,4.5,28.268,3.554a143.869,143.869,0,0,0-16.49-3.827l-9.284-1.773a71.784,71.784,0,0,0-7.539-1.165C922.863,547.755,918.854,549.154,913.646,547.694Z" transform="translate(-302.335 -183.759)" fill="#3f3d56"/>
    <path id="Path_99" data-name="Path 99" d="M923.7,507.691c-.686-.057-1.536-.107-1.891.483-.339.564.049,1.308-.133,1.94-.249.863-1.38,1.084-2.271.967a4.351,4.351,0,0,0-2.644.03,2.241,2.241,0,0,0-.866,2.546,6.553,6.553,0,0,0,1.528,2.436,24.882,24.882,0,0,0,3.965,3.977c2.841,2.1,6.689,3.107,8.478,6.151A4.083,4.083,0,0,0,931,527.745c.859.544,1.979.13,2.9-.292l3.241-1.481a3.683,3.683,0,0,0,1.515-1.031c.741-1,.286-2.433-.336-3.516s-1.417-2.2-1.284-3.444c.238-2.213,3.083-3.059,4.253-4.952,1.179-1.908.411-4.367.547-6.607.159-2.619,1.8-6.025-.843-7.982-2.25-1.663-4.4-.126-6.016,1.71C931.575,504.021,929.964,508.214,923.7,507.691Z" transform="translate(-302.202 -169.504)" fill="#3f3d56"/>
    <path id="Path_100" data-name="Path 100" d="M951.293,457.773c1.107,2.119,3.414,3.383,4.62,5.447,1.308,2.237,1.159,5.127,2.578,7.295,1.456,2.224,4.386,3.405,5.2,5.935.891,2.762-1.131,6.119.481,8.532a3.582,3.582,0,0,0,5.254.483,3.854,3.854,0,0,0-.159-5.377c-.955-.87-2.325-1.246-3.122-2.263a4.748,4.748,0,0,1-.809-1.969,12.89,12.89,0,0,1,.2-6.178,2.749,2.749,0,0,0,.155-1.616c-.359-1.043-1.771-1.117-2.762-1.6-2.251-1.1-2.2-4.276-1.8-6.75-.262,1.647-6.129-1.154-6.743-2.087-1.22-1.853-.556-5.428-.8-7.476C950.955,451.419,949.939,455.183,951.293,457.773Z" transform="translate(-312.725 -154.534)" fill="#3f3d56"/>
    <path id="Path_101" data-name="Path 101" d="M873.467,501.595c-1.083-1.212-2.714-2.48-4.166-1.749a2.637,2.637,0,0,0-.978,3.252,7.157,7.157,0,0,0,2.362,2.816c3.025,2.5,6.283,4.747,8.923,7.647,4.723,5.191,7.225,12.195,12.362,16.976a6.934,6.934,0,0,0,3.893,2.107,3.025,3.025,0,0,0,3.349-2.312c.142-1.23-.716-2.331-1.554-3.242-2-2.17-4.18-4.168-6.064-6.436a5.409,5.409,0,0,1-1.55-3.237c-.01-1.221,1.1-2.5,2.287-2.2-1.439-.368-2.506-2.765-4.618-3.216-1.765-.377-2.192.716-4.292-.185C879.416,510.1,876.272,504.736,873.467,501.595Z" transform="translate(-287.295 -170.318)" fill="#3f3d56"/>
    <path id="Path_102" data-name="Path 102" d="M990.542,349.111a33.168,33.168,0,0,1-3.384-1.209c-2.974-.893-6.91,1.293-6.513,4.373.263,2.046,2.168,3.426,3.22,5.2,1.56,2.632,1.144,5.971.324,8.919a6.973,6.973,0,0,1-1.125,2.538,8.6,8.6,0,0,1-2.666,1.917,35.649,35.649,0,0,0-10.431,8.862,2.554,2.554,0,0,0-.63,1.187c-.142,1.04.9,1.8,1.494,2.665,1.313,1.927.364,4.519.494,6.847a1.936,1.936,0,0,0,.816,1.7c.791.4,1.729-.281,2.158-1.058,1.423-2.579.351-6.718,3.021-7.961.505-.235,1.117-.334,1.454-.778.535-.7.019-1.746.29-2.587.407-1.263,2.134-1.32,3.46-1.264a19.638,19.638,0,0,0,6.746-.9,4.49,4.49,0,0,0,2.233-1.293,4.859,4.859,0,0,0,.568-3.679,49.867,49.867,0,0,0-5.892-17.978c2.345.3,4.9.559,6.921-.663,1.133-.684,2.492-2.731,1.93-4.124C994.142,347.625,992.534,349.48,990.542,349.111Z" transform="translate(-336.849 -121.793)" fill="#3f3d56"/>
    <path id="Path_103" data-name="Path 103" d="M579.653,389.593a9.033,9.033,0,0,1,.063,4.54c-.493,1.45-2.045,2.661-3.511,2.217-1.137-.345-1.794-1.488-2.6-2.36-4.491-4.849-14.624-2.041-17.4-8.04-1.132-2.448-.363-5.381-1.135-7.965a7.09,7.09,0,0,0-7.18-4.878,14.754,14.754,0,0,0-4.132,1.233,104.177,104.177,0,0,1-27.374,6.847,22.491,22.491,0,0,0-5.26.957c-3.857,1.4-6.492,4.974-8.367,8.623s-3.26,7.6-5.774,10.84c-2.642,3.407-6.345,5.793-9.8,8.373a10,10,0,0,0-3.233,3.388,10.6,10.6,0,0,0-.648,5.035l.706,20.757c.091,2.67.2,5.435,1.4,7.824,1.492,2.984,4.44,4.938,6.485,7.573a14.833,14.833,0,0,1,3.077,9.473c-.043,1.374-.18,3,.89,3.862a3.914,3.914,0,0,0,2.189.629l28.078,2.3c4.939.4,10.413,1.069,13.638,4.832,1.522,1.776,2.744,4.33,5.076,4.52a18.856,18.856,0,0,0,2.973-.408c2.523-.2,4.74,1.715,6.139,3.825a16.968,16.968,0,0,1,2.725,10.888c-.229,2.406-.975,4.745-1.136,7.157-.612,9.177,7.167,17.15,7.318,26.346.089,5.409-2.479,10.463-4.983,15.259,4.041,6.121.732,14.272,2.341,21.428,1.526,6.789,7.187,12.1,8.6,18.917.646,3.119.683,6.958,3.434,8.565a7.828,7.828,0,0,0,3.885.778,51.223,51.223,0,0,0,23.325-5.31c3.4-1.688,6.926-4.207,7.52-7.958.479-3.024-1.055-6.407.506-9.042,1.84-3.1,6.552-2.859,9.259-5.246,4.391-3.873.967-11.258,2.746-16.836,1.6-5.014,7.1-7.677,9.833-12.177a21.636,21.636,0,0,0,2.285-6.193,88.339,88.339,0,0,0,2.325-15.795,94.7,94.7,0,0,1,.715-9.675c2.942-18.278,21.012-30.517,26.878-48.076.56-1.677.823-3.911-.668-4.859a4.272,4.272,0,0,0-2.841-.3l-12.943,1.632a8.911,8.911,0,0,1-4.788-.276c-1.476-.668-2.535-2.535-1.751-3.954,2.2-3.982-2.324-9.014-4.333-13.095a193.231,193.231,0,0,0-19.242-31.206,3.173,3.173,0,0,1-.844-1.832l3.674.122c-1.24-4.45-3.286-9.319-7.609-10.946-2.436-.917-5.133-.6-7.732-.458C595,391.856,587.02,390.732,579.653,389.593Z" transform="translate(-172.497 -143.652)" fill="#3f3d56"/>
    <path id="Path_104" data-name="Path 104" d="M609.444,255.917c1.948,2.069,4.131,4.262,6.949,4.623,4.978.637,8.557-4.511,10.836-8.983a4.389,4.389,0,0,0,4.58,4.061,9.041,9.041,0,0,0,3.445-1.347,67.864,67.864,0,0,1,32.151-8.311,3.472,3.472,0,0,1,2.651-3.817c2.285-.453,4.344,1.523,5.446,3.575s1.79,4.431,3.541,5.968,5.142,1.469,5.834-.755c.664-2.136-1.561-3.957-3.409-5.216s-3.8-3.59-2.552-5.448c9.444-2.09,18.946-4.189,28.61-4.6a11.981,11.981,0,0,0,4.816-.83c1.474-.723,2.645-2.365,2.249-3.958a10.906,10.906,0,0,1-11.381-4.293c13.409-1.107,27.671-2.05,39.554,4.26,1.426,3.061-5.842,5.608-3.9,8.369.62.881,1.863.984,2.94,1,8.258.153,16.563.3,24.728-.943,2.984-.456,6-1.1,8.993-.729,4.99.615,9.257,3.945,14.166,5.03a7.58,7.58,0,0,0,5.922-.705c1.684-1.162,2.408-3.808,1.028-5.319,4.622-4.53,12.293-3.407,18.39-1.238s11.874,5.666,18.327,6.149c4.628.347,9.32-.9,13.892-.107,2.874.5,5.548,1.776,8.356,2.561,5.312,1.485,10.931,1.172,16.446,1.243a115.231,115.231,0,0,1,41.064,8.16,12.209,12.209,0,0,1,4.565,2.7,4.476,4.476,0,0,1,1.019,4.911L905.2,259.95c1.273,2.506,4.566,2.933,7.241,3.8s5.448,3.818,3.84,6.124c-2.9-.923-5.524,1.975-6.988,4.64s-3.248,5.858-6.284,6.021c-2.719.145-6.008-2.17-7.781-.1a53.062,53.062,0,0,1,6.252,10c1.751,3.648,3,8.245.632,11.528a2.988,2.988,0,0,1-1.6,1.239c-1.933.489-3.189-1.875-4.575-3.309-1.747-1.806-4.389-2.318-6.754-3.165s-4.858-2.513-5.043-5.019c-.115-1.559.708-3.008,1.314-4.449a17.143,17.143,0,0,0,1.3-7.689,8.733,8.733,0,0,0-2.245-5.793c-1.519-1.478-4.141-1.947-5.772-.593-.761.632-1.371,1.642-2.359,1.68-1.746.067-3.086-2.977-4.491-1.938a4.773,4.773,0,0,1-.648,3.192c-4.192,3.645-10.631,2.1-16.034,3.391a30.094,30.094,0,0,0-7.315,3.195,4.707,4.707,0,0,0-2.091,1.755,3.237,3.237,0,0,0,1.258,3.861,9.988,9.988,0,0,0,4.148,1.416c6.588,1.248,13.272,3.179,18.473,7.41s8.612,11.226,6.966,17.726l-12.991-12.413q.74,7.818.84,15.68a7.049,7.049,0,0,1-.412,3.016c-.926,2.046-3.436,2.734-5.636,3.186a4.415,4.415,0,0,0-3.389,5.656c.781,2.547,2.73,4.533,4.514,6.512s3.54,4.228,3.774,6.882-1.769,5.646-4.427,5.461c-2.015-.14-3.51-1.944-4.37-3.772s-1.371-3.864-2.662-5.417c-3.909-4.7-12.688-2.687-16.19-7.7a7.919,7.919,0,0,0-1.638,7.536c1.629-1.02,3.859-.072,5.083,1.41s1.8,3.382,2.763,5.046c1.3,2.246,3.361,4.237,3.542,6.824a22.3,22.3,0,0,0,.049,2.935c.322,1.568,1.646,2.693,2.565,4,2.137,3.049,2.032,7.237.654,10.7s-3.853,6.35-6.3,9.152a110.383,110.383,0,0,1-13.728,13.825,14.422,14.422,0,0,0-3.9,3.922c-.9,1.622-.948,3.9.438,5.131-.992.05-2.771.538-3.763.587a87.478,87.478,0,0,1-.227-11.968c-3.915-1.88-8.13,3.154-7.624,7.467s3.625,7.774,5.846,11.506c1.624,2.729,2.831,5.911,2.289,9.04s-3.335,6.015-6.5,5.74c-5.032-.439-7.137-7.663-12.12-8.49a2.036,2.036,0,0,0-1.311.13c-.74.406-.868,1.4-.91,2.238-.2,4.136-.38,8.437,1.234,12.25,2.362,5.579,8.464,10.265,7.184,16.186-6.9-3.205-10.481-10.938-12.109-18.367s-1.9-15.226-4.817-22.248c-2.216,2.84-6.873.492-8.9-2.487-1.919-2.825-3.1-6.092-4.963-8.955s-4.715-5.426-8.126-5.583c-3.577-.165-6.679,2.289-9.406,4.608-2.243,1.907-4.546,3.889-5.857,6.525-1.908,3.836-1.409,8.358-1.5,12.642-.1,4.631-1.081,9.516-4.237,12.906s-8.982,4.571-12.463,1.516c-1.817-1.6-2.7-3.978-3.481-6.266a306.736,306.736,0,0,1-9.424-33.645c-.585,2.6-2.867,5.948-5.047,4.417a4.52,4.52,0,0,1-1.163-1.5c-4.066-6.891-11.6-11.025-19.2-13.5s-15.612-3.635-23.136-6.358a58.6,58.6,0,0,1-12-5.978,9.439,9.439,0,0,0-.577,9.655,7.691,7.691,0,0,0,8.678,3.632c1.671-.534,3.081-1.693,4.739-2.266s3.882-.292,4.607,1.306c.694,1.529-.355,3.378.165,4.974.792,2.431,4.459,2.618,5.741,4.83.954,1.646.169,3.831-1.193,5.159a21.592,21.592,0,0,1-4.842,2.981c-5.394,3-9.23,8.12-13.945,12.1s-11.366,6.893-16.984,4.337c1.339-6.782-6.739-11.76-8.225-18.511-.489-2.222-.236-4.582-.934-6.748-1.011-3.135-3.793-5.291-6.074-7.667a30.089,30.089,0,0,1-8.253-21.891c.123-2.79.636-5.625,0-8.345s-2.887-5.352-5.677-5.228c-6.372.281-14.4.755-17.744-4.677-1.193-1.939-1.713-4.778.013-6.264,1.217-1.048,3.014-.949,4.612-.792l14.358,1.412c3.358.33,6.988.6,9.87-1.153s4.13-6.416,1.462-8.481c-1.95-1.509-5.443-1.427-6.009-3.827-.472-2,1.74-4.266.545-5.936-.857-1.2-2.782-.865-3.949.032s-2.014,2.211-3.32,2.89c-2.291,1.192-5.029.058-7.494-.714s-5.769-.837-6.965,1.453c-1.337,2.56,1.186,5.915-.141,8.481-1.754,3.392-7.7,1.461-10.16,4.379-2.827,3.348,1.924,8.34.97,12.618a7.854,7.854,0,0,1-7.738-.435,7.516,7.516,0,0,1-3.248-7c.236-1.924,1.239-3.888.567-5.706-.543-1.47-2.019-2.345-3.391-3.1L569,318.639c-1.3,2.4.342,5.382,2.391,7.187s4.614,3.164,5.959,5.54a7.271,7.271,0,0,1-2.736,9.587,1.678,1.678,0,0,1-1.383.241,1.929,1.929,0,0,1-.9-1.206c-2.462-6.3-6.158-12.512-12.067-15.8s-14.4-2.614-18.275,2.929c-.92,1.317-1.538,2.818-2.34,4.21-4.26,7.4-13.392,10.9-21.925,10.67a4.354,4.354,0,0,1-2.392-.562c-1.379-.952-1.317-2.973-1.106-4.636l.9-7.055c.18-1.417.44-2.983,1.562-3.867,1.581-1.247,3.861-.46,5.874-.489a7.444,7.444,0,0,0,6.757-5.215,8.389,8.389,0,0,0-2.336-8.343c-.923-.867-2.161-1.955-1.674-3.123a2.582,2.582,0,0,1,1.811-1.219c3.616-1.05,7.436-1.325,10.992-2.564s7-3.774,7.846-7.444c.258-1.125.376-2.487,1.386-3.045a4.155,4.155,0,0,1,1.6-.327,7.792,7.792,0,0,0,6.684-8.124c1.7-1.191,4.091-.315,5.74.952s3.1,2.939,5.11,3.485c3.738,1.017,7.35-2.292,11.224-2.308,1.629-.006,3.316.57,4.848.017,1.554-.56,2.482-2.107,3.674-3.249s3.285-1.84,4.386-.609l-.938-6.945a13.654,13.654,0,0,0,11.112-2.009l-12.118-4.095a2.635,2.635,0,0,1-1.133-.606c-.881-.949-.006-2.427.711-3.506,1.714-2.58,2-6.83-.817-8.114-1.924-.877-4.132.176-5.978,1.205l-8.845,4.932c-.281,1.681,1.775,2.634,3.049,3.767a5.112,5.112,0,0,1-3.334,8.932,6.37,6.37,0,0,1,1.138,5.4l-5.951.428a2.578,2.578,0,0,1-1.93-.377c-.636-.565-.55-1.556-.7-2.394-.356-2.024-2.337-3.442-4.36-3.805a15.334,15.334,0,0,0-6.093.563,3.637,3.637,0,0,1-2.619-.06,2.616,2.616,0,0,1-1.036-1.308c-.878-2.129-.057-4.631,1.353-6.451a35.8,35.8,0,0,1,5.074-4.666,29.572,29.572,0,0,0,8.793-13.638c3.276-1.373,6.668-3.238,9.944-4.61a30.428,30.428,0,0,1,16.355-3.169l11.095.212c3.285.063,6.658.143,9.7,1.4s5.706,3.961,5.916,7.239a2.222,2.222,0,0,1-.711,2.032,2.621,2.621,0,0,1-1.4.316C613.814,255.047,612.508,255.81,609.444,255.917Z" transform="translate(-233.631 -90.3)" fill="#3f3d56"/>
    <path id="Path_105" data-name="Path 105" d="M520.321,308.646a3.246,3.246,0,0,0,.885-3.265,6.073,6.073,0,0,0-6.288,1.187,10.6,10.6,0,0,0-1.685,2.227c-1.458,2.378-2.747,5.22-1.9,7.878a2.238,2.238,0,0,0,1.024,1.4,2.693,2.693,0,0,0,1.194.187,40.017,40.017,0,0,0,4.8-.3c.979-.12,2.116-.4,2.494-1.307.5-1.2-.706-2.552-.355-3.8a4.151,4.151,0,0,1,1.025-1.468,1.941,1.941,0,0,0,.6-1.629c-.142-.586-1.038-.918-1.361-.409" transform="translate(-171.334 -106.553)" fill="#3f3d56"/>
    <path id="Path_106" data-name="Path 106" d="M532.035,295.659a13.444,13.444,0,0,0-4.354-.273,1.9,1.9,0,0,0-.928.211,1.548,1.548,0,0,0-.572.828,4.113,4.113,0,0,0,2.395,5.041,5.146,5.146,0,0,1,1.485.6c1.231.955.446,2.908.68,4.449.262,1.73,1.937,3.183,1.63,4.906-.242,1.357-1.692,2.432-1.458,3.791.245,1.423,2.051,1.851,3.49,1.965a4.39,4.39,0,0,0,2.473-.283,3.829,3.829,0,0,0,1.56-2.259,14.481,14.481,0,0,0,.73-5.453,5.171,5.171,0,0,0-.615-2.407,13.432,13.432,0,0,0-1.437-1.645C534.355,301.917,537.259,297.131,532.035,295.659Z" transform="translate(-176.22 -103.808)" fill="#3f3d56"/>
    <path id="Path_107" data-name="Path 107" d="M826.665,553.42s-211.256-121.264-302.2-98.287c0,0-192.745,20.742-215.083,66.376,0,0-61.27-191.469-83.608-197.85" transform="translate(-118.116 -126.656)" fill="none" stroke="#1da1f2" stroke-miterlimit="10" stroke-width="2" opacity="0.8"/>
    <path id="Path_108" data-name="Path 108" d="M309.378,521.134C344.8,426.676,663.914,322.007,663.914,322.007,618.6,333.5,524.461,454.758,524.461,454.758S325.334,309.88,225.77,323.283c0,0,438.463,14.36,600.892,229.762" transform="translate(-118.115 -126.176)" fill="none" stroke="#1da1f2" stroke-miterlimit="10" stroke-width="2" opacity="0.8"/>
    <circle id="Ellipse_13" data-name="Ellipse 13" cx="9.254" cy="9.254" r="9.254" transform="translate(156.279 202.763)" fill="#1da1f2"/>
    <circle id="Ellipse_14" data-name="Ellipse 14" cx="9.254" cy="9.254" r="9.254" transform="translate(210.816 376.464)" fill="#1da1f2"/>
    <circle id="Ellipse_15" data-name="Ellipse 15" cx="9.254" cy="9.254" r="9.254" transform="translate(522.387 201.643)" fill="#1da1f2"/>
    <circle id="Ellipse_16" data-name="Ellipse 16" cx="9.254" cy="9.254" r="9.254" transform="translate(649.158 404.48)" fill="#1da1f2"/>
    <circle id="Ellipse_17" data-name="Ellipse 17" cx="9.254" cy="9.254" r="9.254" transform="translate(399.834 318.19)" fill="#1da1f2"/>
  </g>
</svg>
