<svg xmlns="http://www.w3.org/2000/svg" xmlns:xlink="http://www.w3.org/1999/xlink" width="638.52" height="377.195" viewBox="0 0 638.52 377.195">
  <defs>
    <linearGradient id="linear-gradient" x1="0.5" y1="1" x2="0.5" gradientUnits="objectBoundingBox">
      <stop offset="0" stop-color="gray" stop-opacity="0.251"/>
      <stop offset="0.54" stop-color="gray" stop-opacity="0.122"/>
      <stop offset="1" stop-color="gray" stop-opacity="0.102"/>
    </linearGradient>
    <linearGradient id="linear-gradient-3" x1="0.5" y1="1" x2="0.5" y2="0" xlink:href="#linear-gradient"/>
    <linearGradient id="linear-gradient-4" x1="0.5" y1="1" x2="0.5" y2="0" xlink:href="#linear-gradient"/>
  </defs>
  <g id="undraw_web_devices_ad58" transform="translate(0.001)">
    <path id="Path_221" data-name="Path 221" d="M175.312,144.043c-4.968-.142-10.059,0-14.718,1.43-12.678,3.9-18.687,16.641-16.733,27.655s9.991,20.61,18.33,29.381,17.374,17.442,21.948,27.926c2.28,5.233,3.347,11.094,1.029,16.32-3.575,8.055-14.354,12.555-24.7,13.492s-20.74-.888-31.125-1.5c-4.357-.253-8.838-.284-12.943.894-4.505,1.282-8.259,3.9-11.71,6.632C91.22,276.986,80.44,291.6,82.184,306.952c1.972,17.4,19.562,31.149,38.829,38.527,6.379,2.465,13.128,4.425,18.743,7.914,14.792,9.2,18.114,26.459,16.641,41.689s-6.49,30.478-3.7,45.572c3.285,17.559,17.824,33.424,37.436,40.832,17.473,6.6,39.34,6.163,54.854-3.149,7.562-4.549,13.282-10.866,18.256-17.4A140.365,140.365,0,0,0,281.4,429.5c2.163-5.233,4.2-10.86,9.245-14.5,3.082-2.237,7.075-3.488,11.026-4.462,11.908-2.934,24.45-3.735,36.468-6.348s24.111-7.5,30.644-16.191c9.245-12.327,4.931-28.117,4.974-42.613.074-33.072,24.1-62.675,32.974-94.915,2.9-10.533,3.975-22.188-2.5-31.587-4.394-6.379-11.809-10.983-19.6-14.539-17.14-7.821-36.622-11.3-55.784-14.693-26.632-4.709-58.971-5.319-79.612-20.555C229.426,154.478,202.326,144.043,175.312,144.043Z" transform="translate(-82 -144)" fill="#1da1f2" opacity="0.2"/>
    <ellipse id="Ellipse_30" data-name="Ellipse 30" cx="286.594" cy="76.746" rx="286.594" ry="76.746" transform="translate(65.331 223.704)" fill="#f5f5f5"/>
    <path id="Path_222" data-name="Path 222" d="M1019.889,330.86s-22.083,22.083-9.615,54.854S988.9,472.98,988.9,472.98s.364-.055,1.035-.173c45.356-8.012,67.9-59.883,42.675-98.422C1023.236,360.062,1015.538,343.273,1019.889,330.86Z" transform="translate(-429.949 -215.692)" fill="#1da1f2"/>
    <path id="Path_223" data-name="Path 223" d="M1019.889,330.86s-12.468,27.069,0,49.152,2.139,84.062-30.989,92.968" transform="translate(-429.949 -215.692)" fill="none" stroke="#535461" stroke-miterlimit="10" stroke-width="2"/>
    <path id="Path_224" data-name="Path 224" d="M1055.721,475.618s-25.2-4.012-27.495,18.57S979.77,519.9,979.77,519.9l.863.573c38.114,25.017,74.576,15.938,69.029-17.257C1047.647,490.842,1047.813,478.435,1055.721,475.618Z" transform="translate(-426.446 -271.126)" fill="#1da1f2"/>
    <path id="Path_225" data-name="Path 225" d="M1055.721,475.618s-25.2-4.012-27.495,18.57S979.77,519.9,979.77,519.9l.863.573c38.114,25.017,74.576,15.938,69.029-17.257C1047.647,490.842,1047.813,478.435,1055.721,475.618Z" transform="translate(-426.446 -271.126)" fill="#f5f5f5" opacity="0.2"/>
    <path id="Path_226" data-name="Path 226" d="M1055.721,475.79s-19.562,4.314-17.954,22.077-29.048,39.106-58,22.188" transform="translate(-426.446 -271.297)" fill="none" stroke="#535461" stroke-miterlimit="10" stroke-width="2"/>
    <path id="Path_227" data-name="Path 227" d="M750.418,439.75H710.825a13.2,13.2,0,0,0,1.381-5.9V253.537a13.257,13.257,0,0,0-13.257-13.257H392.422a13.257,13.257,0,0,0-13.263,13.257v180.32a13.2,13.2,0,0,0,1.381,5.9H339.547a3.507,3.507,0,0,0-3.507,3.507v2.829a19.612,19.612,0,0,0,19.612,19.593H734.314a19.612,19.612,0,0,0,19.612-19.612v-2.829a3.507,3.507,0,0,0-3.507-3.495Zm-244,11.217-3.378-3.852h84.265l-3.76,3.858Z" transform="translate(-179.468 -180.94)" fill="url(#linear-gradient)"/>
    <rect id="Rectangle_276" data-name="Rectangle 276" width="325.497" height="202.151" rx="23.26" transform="translate(203.457 61.892)" fill="#535461"/>
    <rect id="Rectangle_277" data-name="Rectangle 277" width="311.106" height="165.146" transform="translate(210.304 91.359)" fill="#fff"/>
    <circle id="Ellipse_31" data-name="Ellipse 31" cx="2.743" cy="2.743" r="2.743" transform="translate(363.118 74.225)" fill="#fff"/>
    <path id="Path_228" data-name="Path 228" d="M596.315,560.73l-10.693,10.965H510.244l-9.658-10.965H347.157a3.427,3.427,0,0,0-3.427,3.427v2.761A19.168,19.168,0,0,0,362.9,586.086H732.974a19.168,19.168,0,0,0,19.168-19.168v-2.761a3.427,3.427,0,0,0-3.427-3.427Z" transform="translate(-182.418 -303.886)" fill="#535461"/>
    <path id="Path_229" data-name="Path 229" d="M491.223,301.65H359.987a12.025,12.025,0,0,0-12.037,12.006V495.474a12.025,12.025,0,0,0,12.037,12.006H491.223a12.025,12.025,0,0,0,12.037-12.006V313.656a12.025,12.025,0,0,0-12.037-12.006Z" transform="translate(-184.037 -204.485)" fill="url(#linear-gradient)"/>
    <rect id="Rectangle_278" data-name="Rectangle 278" width="151.618" height="201.54" rx="20" transform="translate(165.756 99.63)" fill="#535461"/>
    <rect id="Rectangle_279" data-name="Rectangle 279" width="136.209" height="163.414" transform="translate(173.46 118.693)" fill="#fff"/>
    <circle id="Ellipse_32" data-name="Ellipse 32" cx="1.849" cy="1.849" r="1.849" transform="translate(239.099 107.026)" fill="#fff"/>
    <circle id="Ellipse_33" data-name="Ellipse 33" cx="5.547" cy="5.547" r="5.547" transform="translate(235.401 285.762)" fill="#fff"/>
    <path id="Path_230" data-name="Path 230" d="M372.008,401.65H304.625a6.663,6.663,0,0,0-6.675,6.65V555.862a6.663,6.663,0,0,0,6.675,6.65h67.384a6.662,6.662,0,0,0,6.675-6.65V408.3a6.662,6.662,0,0,0-6.675-6.65Z" transform="translate(-164.854 -242.852)" fill="url(#linear-gradient-3)"/>
    <rect id="Rectangle_280" data-name="Rectangle 280" width="79.507" height="159.014" rx="11" transform="translate(133.707 160.03)" fill="#535461"/>
    <rect id="Rectangle_281" data-name="Rectangle 281" width="67.796" height="129.43" transform="translate(139.562 174.822)" fill="#fff"/>
    <circle id="Ellipse_34" data-name="Ellipse 34" cx="0.616" cy="0.616" r="0.616" transform="translate(164.831 166.81)" fill="#fff"/>
    <rect id="Rectangle_282" data-name="Rectangle 282" width="13.559" height="1.233" rx="0.616" transform="translate(168.529 166.81)" fill="#fff"/>
    <circle id="Ellipse_35" data-name="Ellipse 35" cx="4.314" cy="4.314" r="4.314" transform="translate(168.837 306.101)" fill="#fff"/>
    <path id="Path_231" data-name="Path 231" d="M283.728,625.125s-8.173-27.735,1.535-48.16a43.815,43.815,0,0,0,3.562-27.495,73.691,73.691,0,0,0-3.889-12.9" transform="translate(-158.163 -294.617)" fill="none" stroke="#535461" stroke-miterlimit="10" stroke-width="2"/>
    <path id="Path_232" data-name="Path 232" d="M289.777,511.793c0,3.4-6.163,13.257-6.163,13.257s-6.163-9.861-6.163-13.257a6.163,6.163,0,0,1,12.327,0Z" transform="translate(-156.988 -282.746)" fill="#1da1f2"/>
    <path id="Path_233" data-name="Path 233" d="M306.3,540.123c-1.849,2.854-12.376,7.784-12.376,7.784s.191-11.624,2.04-14.478a6.163,6.163,0,1,1,10.336,6.693Z" transform="translate(-163.307 -292.241)" fill="#1da1f2"/>
    <path id="Path_234" data-name="Path 234" d="M304.143,591.218c-3.038,1.528-14.613.474-14.613.474s6.034-9.935,9.066-11.464a6.163,6.163,0,0,1,5.547,11Z" transform="translate(-161.623 -311.157)" fill="#1da1f2"/>
    <path id="Path_235" data-name="Path 235" d="M294.884,630.983c-2.736,2.022-14.324,2.934-14.324,2.934s4.265-10.81,7-12.832a6.163,6.163,0,0,1,7.322,9.9Z" transform="translate(-158.182 -326.645)" fill="#1da1f2"/>
    <path id="Path_236" data-name="Path 236" d="M271.614,553.182c2.465,2.367,13.8,4.826,13.8,4.826s-2.78-11.285-5.22-13.652a6.163,6.163,0,1,0-8.579,8.832Z" transform="translate(-153.951 -296.856)" fill="#1da1f2"/>
    <path id="Path_237" data-name="Path 237" d="M260.193,598.761c3.039,1.529,14.613.474,14.613.474s-6.034-9.935-9.066-11.464a6.163,6.163,0,1,0-5.547,11Z" transform="translate(-148.977 -313.96)" fill="#1da1f2"/>
    <path id="Path_238" data-name="Path 238" d="M257.042,645.583c2.737,2.022,14.324,2.934,14.324,2.934s-4.265-10.81-7-12.832a6.163,6.163,0,0,0-7.322,9.9Z" transform="translate(-148.291 -332.246)" fill="#1da1f2"/>
    <path id="Path_239" data-name="Path 239" d="M902.561,478.939c-6.823-8.277-15.088-17.787-13.929-28.8.937-8.918-1.307-17.165-.863-26.114.616-12.715-1.935-22.669-11.094-30.817-5.35-4.764-14.293-8.505-16.955-7.55-5.276,1.886-11.032,1.165-16.462,2.465-4.123.961-6.866,2.465-8.567,4.314-3.421,3.082-3.476,7.4-1.917,11.988a20.246,20.246,0,0,0,10,28.4c-3.8,1.59-7.088,5.251-8.37,12.684a86.7,86.7,0,0,1-4.025,14.983,24.341,24.341,0,0,1-2.465.992c.185.074.376.123.561.191-.4.154-.8.308-1.233.444a13.065,13.065,0,0,0,2.25.653A85.8,85.8,0,0,1,818.4,482.945s-11.495,2.539-15.963-1.9c0,0,.727.851,1.713,2.126-4.37-1.812-11.544-4.77-17.676-7.2-4.45-1.769-5.59,0-5.547,2.465a8.21,8.21,0,0,0-3.082,1.035,29.987,29.987,0,0,0-4.123-2.219c-2.552-.616-10.854-5.079-19.156,10.151-4.832,8.857-17.22,25.023-26.743,36.98-18.521,8.518-42.632,19.3-51.593,22.015h-5.744c-.752-1.233-1.276-2.009-1.276-2.009l-.444.3-.191-.3s-11.279,7.809-22.73,7.871a21.566,21.566,0,0,1-4.832-.616c-5.263-1.325-8.974-1.917-11.624-1.849-3.137-.055-4.931.69-6.015,2.1h0a5.5,5.5,0,0,0-.4.579h0a6.792,6.792,0,0,0-.333.616h0c-.1.222-.2.456-.284.7a1.43,1.43,0,0,0,.357,1.2,6.439,6.439,0,0,0,.5.616l.32.345a50.932,50.932,0,0,0,7.334,5.677c.943.616,1.941,1.294,2.983,1.966l1.978,1.233,1.769,1.1.709.438.789.481,1.411.857.838.505,1.584.943,1.282.758c3.353,1.978,6.693,3.9,9.707,5.6l2.108,1.257.2.111,1.356.758,2.342,1.3,1.609.888.752.413.807.444.16.086,1.405.764a2.034,2.034,0,0,0,1.639-.444c.407-1.726,1.4-5.424,2.465-5.707s5.683-8.351,6.983-13.75h12.462a54.929,54.929,0,0,0,7.3-1.122c-3.217,2.293-6.4,3.735-8.881,3.119-5.239-1.3-10.2,1.892-10.7,5.042a.81.81,0,0,1-.062.2c-.018.068-.031.129-.043.191s-.037.154-.049.234a1.051,1.051,0,0,0,0,.2v.851a1.244,1.244,0,0,0,.062.253c.025.086,0,.111.043.16a3.1,3.1,0,0,0,.135.327l.031.08a3.313,3.313,0,0,0,.234.388l.1.13a2.607,2.607,0,0,0,.2.253l.142.142c.074.074.154.148.234.222l.173.142.277.2.2.136.333.2.222.117.419.2.209.093c.222.093.456.179.709.259.4.129.875.265,1.411.4l.536.129.783.179.413.092q.8.173,1.7.345l.832.154.678.123,1.559.271c.974.166,1.991.333,3.082.493l2.687.407,3.5.5.777.1,1.233.173,1.806.24,1.233.16h0l3.2.407,1,.123,2.015.246c2.65.32,5.214.616,7.575.881l2.73.308,1.381.154.616.062,1.652.179.918.1,1.134.117,1.6.166h.173l1.023.1h0a.931.931,0,0,0,1.029-.906h0v-.1a.9.9,0,0,0,.148-.481,20.959,20.959,0,0,1,.573-4.511c.068-.253.148-.512.234-.771l.1-.3c.111-.314.222-.616.351-.955a6.857,6.857,0,0,0,.24-.7.865.865,0,0,1,.068-.228c.025-.08.062-.253.086-.382,1.282-4.382-.265-12.555-.709-15.766a17.112,17.112,0,0,0-.7-3.02,1.226,1.226,0,0,0,.24,0,7.267,7.267,0,0,0,1.849-1c9.418-3.359,17.356-7.2,19.864-11.045a17.2,17.2,0,0,1,12.129,1.27c4.875,2.422,41.756,14.459,58.927,20.018,3.082,2.656,5.5,4.21,6.835,4.092,0,0,21.861,3.538,30.65-3.365.783.542,1.276.832,1.276.832s12.77-6.342,14.687-14.595c.616-2.675,1.177-6.619,1.75-10.983a15.97,15.97,0,0,0,4.635-11.223c.4-13.855,5.769-29.683,9.75-43.76,4.832.382,6.7-.53,11.131-2.718l-.2-.253C902.006,479.2,902.283,479.074,902.561,478.939ZM829.347,499.69l-2.465-.82a20.328,20.328,0,0,0,2.126-3.538Zm-13.738,5.831L830.4,514.4l.129,1.806a12.948,12.948,0,0,0,.123,4.129c-6.521-5.794-14.151-12.826-15.051-14.817Zm-6.04-12.943c-1.615-.666-2.952-1.27-3.871-1.769,1.233.086,2.4.16,3.427.216a7.668,7.668,0,0,1,.444,1.553Zm-39.618,14.465s2.552-5.707,8.3,3.809c.894,1.479,2.539,3.834,4.715,6.749l-16.74-2.237a24.034,24.034,0,0,0,3.723-8.314Z" transform="translate(-289.311 -236.659)" fill="url(#linear-gradient-4)"/>
    <path id="Path_240" data-name="Path 240" d="M905.126,539.7s-11.71-4.931-20.955-8.629-3.7,8.629-3.7,8.629,15.408,4.314,15.408,4.931,12.943,1.233,12.943,1.233Z" transform="translate(-387.716 -292.241)" fill="#f7c4a7"/>
    <path id="Path_241" data-name="Path 241" d="M905.126,539.7s-11.71-4.931-20.955-8.629-3.7,8.629-3.7,8.629,15.408,4.314,15.408,4.931,12.943,1.233,12.943,1.233Z" transform="translate(-387.716 -292.241)" opacity="0.05"/>
    <path id="Path_242" data-name="Path 242" d="M967.97,464.725s-20.955-11.094-24.653,10.478a88.068,88.068,0,0,1-15.408,36.364s-11.094,2.465-15.408-1.849c0,0,10.478,12.327,5.547,13.559,0,0,11.094,8.012,16.025,5.547s8.629-19.106,10.478-23.421S953.178,463.492,967.97,464.725Z" transform="translate(-400.637 -265.958)" fill="#575988"/>
    <path id="Path_243" data-name="Path 243" d="M967.97,464.725s-20.955-11.094-24.653,10.478a88.068,88.068,0,0,1-15.408,36.364s-11.094,2.465-15.408-1.849c0,0,10.478,12.327,5.547,13.559,0,0,11.094,8.012,16.025,5.547s8.629-19.106,10.478-23.421S953.178,463.492,967.97,464.725Z" transform="translate(-400.637 -265.958)" opacity="0.1"/>
    <path id="Path_244" data-name="Path 244" d="M983.5,444.471s12.943,14.792,13.559,27.119,14.792-12.943,16.025-13.559-12.327-21.572-13.559-28.351S983.5,444.471,983.5,444.471Z" transform="translate(-427.877 -253.1)" fill="#f7c4a7"/>
    <path id="Path_245" data-name="Path 245" d="M910.916,320.75l-8.166,7.4,3.852,15.562,10.478-9.861-1.233-9.861Z" transform="translate(-346.357 -123.062)" fill="#f7c4a7"/>
    <path id="Path_246" data-name="Path 246" d="M630.676,498.5H616.5l5.547,13.559,13.559-3.7Z" transform="translate(-236.532 -191.259)" fill="#f7c4a7"/>
    <path id="Path_247" data-name="Path 247" d="M676.012,639.33s-14.681,10.225-27.223,7.045-15.951-1.991-17.411,2.114c-1.35,3.778,35.032,23.76,40.832,26.915a.666.666,0,0,0,.968-.431c.394-1.676,1.35-5.27,2.373-5.547,1.331-.357,7.4-11.71,7.063-16.172S676.012,639.33,676.012,639.33Z" transform="translate(-292.765 -334.043)" opacity="0.1"/>
    <path id="Path_248" data-name="Path 248" d="M675.012,639.33s-14.681,10.225-27.223,7.045-15.951-1.991-17.411,2.114c-1.35,3.778,35.032,23.76,40.832,26.915a.666.666,0,0,0,.968-.431c.394-1.676,1.35-5.27,2.373-5.547,1.331-.357,7.4-11.71,7.063-16.172S675.012,639.33,675.012,639.33Z" transform="translate(-292.381 -334.043)" fill="#f3b5b7"/>
    <path id="Path_249" data-name="Path 249" d="M826.987,596.047,785.693,590.5s-67.18,32.049-75.193,32.666l1.849,14.176h12.327c4.931,0,53-10.478,59.784-20.955a16.5,16.5,0,0,1,11.71,1.233c6.163,3.082,65.331,22.188,65.331,22.188Z" transform="translate(-323.136 -315.308)" fill="#575988"/>
    <path id="Path_250" data-name="Path 250" d="M826.987,596.047,785.693,590.5s-67.18,32.049-75.193,32.666l1.849,14.176h12.327c4.931,0,53-10.478,59.784-20.955a16.5,16.5,0,0,1,11.71,1.233c6.163,3.082,65.331,22.188,65.331,22.188Z" transform="translate(-323.136 -315.308)" opacity="0.1"/>
    <path id="Path_251" data-name="Path 251" d="M694.28,486.5l-6.78,8.629,6.78,3.7,9.861-7.4Z" transform="translate(-263.772 -186.655)" fill="#f7c4a7"/>
    <path id="Path_252" data-name="Path 252" d="M896.685,582.766s-22.188-19-23.723-22.441-37.911-26.866-40.376-27.482-10.478-4.931-18.49,9.861-37.6,50.539-37.6,50.539,9.245,12.943,12.327,12.327,37.6-29.584,40.062-43.76c0,0,2.465-5.547,8.012,3.7s41.294,53.621,48.074,53c0,0,26.5,4.314,32.049-6.163S896.685,582.766,896.685,582.766Z" transform="translate(-348.458 -292.782)" fill="#575988"/>
    <path id="Path_253" data-name="Path 253" d="M978,467.425s-7.7,3.39-8.321,17.565S955.5,523.2,955.5,523.2l1.233,28.351s14.792,14.792,16.025,24.037S984.468,591,984.468,591s12.327-6.163,14.176-14.176,3.082-27.735,6.163-35.131,1.233-53.621,1.233-53.621l-9.245-16.025-4.931-5.547-12.943,14.792S971.833,471.739,978,467.425Z" transform="translate(-417.135 -267.733)" fill="#dddbe2"/>
    <path id="Path_254" data-name="Path 254" d="M959.047,542.834s-1.849-22.188,3.7-27.119l11.094-31.433s4.006-15.1,3.39-16.333-14.484,12.018-14.484,12.018L953.5,512.634l2.465,34.515Z" transform="translate(-416.367 -268.258)" opacity="0.1"/>
    <path id="Path_255" data-name="Path 255" d="M958.047,542.643s-1.849-22.188,3.7-27.119l11.094-31.433s4.314-15.408,3.7-16.641-14.792,12.327-14.792,12.327L952.5,512.443l2.465,34.515Z" transform="translate(-415.984 -268.067)" fill="#575988"/>
    <path id="Path_256" data-name="Path 256" d="M929.931,558.813s-30.817-9.861-32.666-12.327-21.572-18.49-28.351-7.4,25.27,14.176,25.27,14.176l32.666,19.723Z" transform="translate(-383.553 -294.098)" fill="#f7c4a7"/>
    <path id="Path_257" data-name="Path 257" d="M756.387,643.389l-9.122-1.639s-14.94,19.137-22.724,17.2-14.946,6.435-6.724,9.122c7.427,2.428,39.5,5.824,45.609,6.453a.9.9,0,0,0,.992-.875,19.629,19.629,0,0,1,1.418-6.946c1.646-4.037,0-12.709-.456-16.025a15.918,15.918,0,0,0-1.794-5.547Z" transform="translate(-324.542 -334.971)" opacity="0.1"/>
    <path id="Path_258" data-name="Path 258" d="M756.146,644.359l-9.122-1.639s-14.94,19.137-22.712,17.2-14.946,6.435-6.724,9.122c7.427,2.428,39.5,5.824,45.609,6.453a.9.9,0,0,0,.992-.875,19.626,19.626,0,0,1,1.362-6.94c1.646-4.037,0-12.709-.456-16.025a15.923,15.923,0,0,0-1.793-5.547Z" transform="translate(-324.456 -335.343)" fill="#f3b5b7"/>
    <circle id="Ellipse_36" data-name="Ellipse 36" cx="19.723" cy="19.723" r="19.723" transform="translate(540.522 159.014)" opacity="0.1"/>
    <circle id="Ellipse_37" data-name="Ellipse 37" cx="19.723" cy="19.723" r="19.723" transform="translate(538.673 159.014)" fill="#f7c4a7"/>
    <path id="Path_259" data-name="Path 259" d="M1002.789,465.5s23.421,8.012,23.421,24.653-12.943,43.143-13.559,64.715-34.515,18.49-34.515,18.49-4.931-72.727,0-78.274S1005.255,467.965,1002.789,465.5Z" transform="translate(-424.979 -267.349)" fill="#575988"/>
    <path id="Path_260" data-name="Path 260" d="M990.9,511.449s-8.629,38.213-28.968,31.433c0,0-10.478,15.408-3.082,22.188,0,0,17.874,4.314,29.584-7.4s20.339-16.025,22.188-30.2,3.082-33.9-3.082-32.049S990.9,511.449,990.9,511.449Z" transform="translate(-417.408 -278.784)" opacity="0.1"/>
    <path id="Path_261" data-name="Path 261" d="M991.9,510.449s-8.629,38.213-28.968,31.433c0,0-10.478,15.408-3.082,22.188,0,0,17.874,4.314,29.584-7.4s20.339-16.025,22.188-30.2,3.082-33.9-3.082-32.049S991.9,510.449,991.9,510.449Z" transform="translate(-417.792 -278.4)" fill="#575988"/>
    <path id="Path_262" data-name="Path 262" d="M797.9,680a.567.567,0,0,1-.055.173,18.044,18.044,0,0,0-.968,3.26c.148-.481.321-.974.518-1.467A8.946,8.946,0,0,0,797.9,680Z" transform="translate(-356.277 -349.646)" fill="#dddbe2"/>
    <path id="Path_263" data-name="Path 263" d="M718.038,680.243c-2.539-.832-3.606-2.2-3.649-3.642-1.048,2.009-.388,4.265,3.2,5.436,7.427,2.428,39.507,5.824,45.609,6.453a.9.9,0,0,0,.992-.881h0a.906.906,0,0,0-.807-.918C756.688,685.974,725.366,682.634,718.038,680.243Z" transform="translate(-324.455 -348.342)" fill="#dddbe2"/>
    <path id="Path_264" data-name="Path 264" d="M631.239,651.617a7.583,7.583,0,0,1,.616-1.307,6.01,6.01,0,0,0-1.448,2.391c-1.35,3.778,35.032,23.76,40.832,26.915a.666.666,0,0,0,.968-.438h0a.666.666,0,0,0-.327-.74C665.47,674.932,629.908,655.352,631.239,651.617Z" transform="translate(-292.393 -338.255)" fill="#dddbe2"/>
    <path id="Path_265" data-name="Path 265" d="M702.849,686.2c-.327.086-.647.524-.949,1.122l.1-.037c.271-.074.733-.616,1.294-1.418a1.2,1.2,0,0,1-.444.333Z" transform="translate(-319.836 -351.898)" fill="#dddbe2"/>
    <path id="Path_266" data-name="Path 266" d="M971.187,434.432c-1.738,3.834-2.1,8.154-3.377,12.173a26.766,26.766,0,0,1-16.5,17.109c6.4,2.552,13.96-.567,18.909-5.744s7.852-12.068,10.632-18.773c7.186,4.832,6.311,15.938,8.727,24.585a27.267,27.267,0,0,0,14.515,17.35,25.991,25.991,0,0,0,22.231-.45c-6.589-8.012-15.969-19.063-14.854-29.763.906-8.666-5.313-15.285-4.887-23.981.616-12.327-4.1-18.589-12.943-26.5-5.165-4.629,2.965-11.156-3.7-9.245-2.619.752-5.381-2.052-7.951-1.128-5.091,1.849-10.65,1.134-15.889,2.367C938.872,398.827,973.726,428.836,971.187,434.432Z" transform="translate(-415.527 -238.334)" opacity="0.1"/>
    <path id="Path_267" data-name="Path 267" d="M972.187,433.315c-1.738,3.834-2.1,8.154-3.377,12.173a26.766,26.766,0,0,1-16.5,17.109c6.4,2.552,13.96-.567,18.909-5.744s7.852-12.068,10.632-18.773c7.186,4.832,6.311,15.938,8.727,24.585a27.266,27.266,0,0,0,14.515,17.35,25.991,25.991,0,0,0,22.231-.45c-6.589-8.012-15.353-17.214-14.237-27.914.906-8.666-.444-17.572,0-26.262.616-12.327-5.43-24.234-14.274-32.148-5.165-4.629-13.233-5.22-15.809-4.314-5.091,1.849-10.65,1.134-15.889,2.367C939.873,397.709,974.726,427.718,972.187,433.315Z" transform="translate(-415.911 -237.833)" fill="#fc6681"/>
  </g>
</svg>
