<svg xmlns="http://www.w3.org/2000/svg" width="402.469" height="469.244" viewBox="0 0 402.469 469.244">
  <g id="Group_133" data-name="Group 133" transform="translate(-785.024 -129.239)">
    <g id="undraw_learning_2q1h" transform="translate(719.147 97.833) rotate(13)">
      <path id="Path_22" data-name="Path 22" d="M200.922,73.569v311.88h300V73.569Zm16.007,286.043A4.643,4.643,0,1,1,222.092,355a4.912,4.912,0,0,1-5.163,4.614Zm0-22.607a4.643,4.643,0,1,1,5.163-4.614,4.912,4.912,0,0,1-5.163,4.614Zm0-22.145a4.643,4.643,0,1,1,5.163-4.614,4.912,4.912,0,0,1-5.163,4.614Zm0-22.607a4.643,4.643,0,1,1,5.163-4.614,4.912,4.912,0,0,1-5.163,4.614Zm0-22.607a4.643,4.643,0,1,1,5.163-4.614,4.912,4.912,0,0,1-5.163,4.614Zm0-22.145a4.643,4.643,0,1,1,5.163-4.614,4.912,4.912,0,0,1-5.163,4.614Zm0-22.607a4.643,4.643,0,1,1,5.163-4.614,4.912,4.912,0,0,1-5.163,4.614Zm0-22.607a4.643,4.643,0,1,1,5.163-4.614,4.912,4.912,0,0,1-5.163,4.614Zm0-22.145a4.643,4.643,0,1,1,5.163-4.614,4.912,4.912,0,0,1-5.163,4.614Zm0-22.607a4.643,4.643,0,1,1,5.163-4.614,4.912,4.912,0,0,1-5.163,4.614Zm0-22.607a4.643,4.643,0,1,1,5.163-4.614,4.912,4.912,0,0,1-5.163,4.614Zm0-21.684a4.643,4.643,0,1,1,5.163-4.614,4.912,4.912,0,0,1-5.163,4.614Z" transform="translate(-61.309 -73.569)" fill="#f2f2f2"/>
      <path id="Path_23" data-name="Path 23" d="M439.613,23.685v-.923h-264.5V0h-1.033V22.763h-34.47v.923h34.47V45.213h-34.47v.923h34.47V67.664h-34.47v.923h34.47V90.114h-34.47v.923h34.47v21.528h-34.47v.923h34.47v21.528h-34.47v.923h34.47v21.528h-34.47v.923h34.47v21.528h-34.47v.923h34.47v21.528h-34.47v.923h34.47v21.528h-34.47v.923h34.47v21.528h-34.47v.923h34.47v21.528h-34.47v.923h34.47v21.528h-34.47v.923h34.47V311.88h1.033V293.091h264.5v-.923h-264.5V270.64h264.5v-.923h-264.5V248.19h264.5v-.923h-264.5V225.739h264.5v-.923h-264.5V203.289h264.5v-.923h-264.5V180.839h264.5v-.923h-264.5V158.388h264.5v-.923h-264.5V135.938h264.5v-.923h-264.5V113.487h264.5v-.923h-264.5V91.037h264.5v-.923h-264.5V68.587h264.5v-.923h-264.5V46.136h264.5v-.923h-264.5V23.685Z" fill="#3f3d56" opacity="0.3"/>
      <path id="Path_24" data-name="Path 24" d="M330.708,246.748a115.521,115.521,0,0,1-19.378,12.146c-4.424,2.2-9.332,4.15-14.184,3.229s-9.209-5.879-7.727-10.59a8.373,8.373,0,0,1,6.45-5.326,14.822,14.822,0,0,1,8.56,1.235,24.614,24.614,0,0,1,11.618,10.309c1.356,2.361,2.418,5.068,4.669,6.6a13.266,13.266,0,0,0,5.929,1.716c4.9.613,9.936,1.22,14.74.061s9.407-4.483,10.632-9.271" transform="translate(-109.147 -159.346)" fill="none" stroke="#3f3d56" stroke-miterlimit="10" stroke-width="2"/>
      <path id="Path_25" data-name="Path 25" d="M367.772,223.933q.57,22.031-.616,44.061l10.422-1.969c3.842-.726,8.212-1.835,9.948-5.338,1.619-3.266.078-7.389-2.616-9.843s-6.285-3.626-9.759-4.731l-5.69-1.811" transform="translate(-144.727 -150.813)" fill="none" stroke="#3f3d56" stroke-miterlimit="10" stroke-width="2"/>
      <path id="Path_26" data-name="Path 26" d="M423.946,240.125c-3.805-.527-7.687-1.032-11.469-.354s-7.512,2.736-9.255,6.16c-3.22,6.323,1.713,14.109,7.965,17.465a25.77,25.77,0,0,0,16.991,2.558" transform="translate(-163.216 -156.776)" fill="none" stroke="#3f3d56" stroke-miterlimit="10" stroke-width="2"/>
      <path id="Path_27" data-name="Path 27" d="M340.276,189.821q-14.354,13.5-28.708,0a39.492,39.492,0,0,1-12.146-28.835V73.569h53v87.417a39.492,39.492,0,0,1-12.146,28.835Z" transform="translate(-113.73 -73.569)" fill="#1da1f2"/>
      <path id="Path_28" data-name="Path 28" d="M636.622,500.3c0,81.83-48.64,110.4-108.65,110.4-1.39,0-2.78-.02-4.16-.05-2.78-.06-5.54-.19-8.26-.38-54.16-3.83-96.23-33.87-96.23-109.97,0-78.74,100.62-178.11,108.2-185.48a.01.01,0,0,1,0-.007.01.01,0,0,1,.007,0c.29-.29.44-.43.44-.43S636.622,418.479,636.622,500.3Z" transform="translate(-230.048 -265.63)" fill="#1da1f2"/>
      <path id="Path_29" data-name="Path 29" d="M524.012,598.179l39.74-55.52-39.84,61.62-.1,6.37c-2.78-.06-5.54-.19-8.26-.38l4.28-81.86-.03-.64.07-.11.41-7.74-39.94-61.77,40.06,55.97.1,1.64,3.23-61.85-34.19-63.83,34.61,52.98,3.37-128.24.01-.44v.43l-.56,101.12,34.04-40.09-34.18,48.8-.9,55.38,31.79-53.15-31.92,61.3-.5,30.79,46.13-73.98-46.31,84.72Z" transform="translate(-221.577 -265.609)" fill="#3f3d56"/>
    </g>
    <g id="undraw_learning_2q1h-2" data-name="undraw_learning_2q1h" transform="translate(759.147 137.833) rotate(13)">
      <ellipse id="Ellipse_6" data-name="Ellipse 6" cx="91.933" cy="4.647" rx="91.933" ry="4.647" transform="translate(180.095 379.446)" fill="#3f3d56"/>
      <path id="Path_22-2" data-name="Path 22" d="M200.922,73.569v311.88h300V73.569Zm16.007,286.043A4.643,4.643,0,1,1,222.092,355a4.912,4.912,0,0,1-5.163,4.614Zm0-22.607a4.643,4.643,0,1,1,5.163-4.614,4.912,4.912,0,0,1-5.163,4.614Zm0-22.145a4.643,4.643,0,1,1,5.163-4.614,4.912,4.912,0,0,1-5.163,4.614Zm0-22.607a4.643,4.643,0,1,1,5.163-4.614,4.912,4.912,0,0,1-5.163,4.614Zm0-22.607a4.643,4.643,0,1,1,5.163-4.614,4.912,4.912,0,0,1-5.163,4.614Zm0-22.145a4.643,4.643,0,1,1,5.163-4.614,4.912,4.912,0,0,1-5.163,4.614Zm0-22.607a4.643,4.643,0,1,1,5.163-4.614,4.912,4.912,0,0,1-5.163,4.614Zm0-22.607a4.643,4.643,0,1,1,5.163-4.614,4.912,4.912,0,0,1-5.163,4.614Zm0-22.145a4.643,4.643,0,1,1,5.163-4.614,4.912,4.912,0,0,1-5.163,4.614Zm0-22.607a4.643,4.643,0,1,1,5.163-4.614,4.912,4.912,0,0,1-5.163,4.614Zm0-22.607a4.643,4.643,0,1,1,5.163-4.614,4.912,4.912,0,0,1-5.163,4.614Zm0-21.684a4.643,4.643,0,1,1,5.163-4.614,4.912,4.912,0,0,1-5.163,4.614Z" transform="translate(-61.309 -73.569)" fill="#f2f2f2"/>
      <path id="Path_23-2" data-name="Path 23" d="M439.613,23.685v-.923h-264.5V0h-1.033V22.763h-34.47v.923h34.47V45.213h-34.47v.923h34.47V67.664h-34.47v.923h34.47V90.114h-34.47v.923h34.47v21.528h-34.47v.923h34.47v21.528h-34.47v.923h34.47v21.528h-34.47v.923h34.47v21.528h-34.47v.923h34.47v21.528h-34.47v.923h34.47v21.528h-34.47v.923h34.47v21.528h-34.47v.923h34.47v21.528h-34.47v.923h34.47v21.528h-34.47v.923h34.47V311.88h1.033V293.091h264.5v-.923h-264.5V270.64h264.5v-.923h-264.5V248.19h264.5v-.923h-264.5V225.739h264.5v-.923h-264.5V203.289h264.5v-.923h-264.5V180.839h264.5v-.923h-264.5V158.388h264.5v-.923h-264.5V135.938h264.5v-.923h-264.5V113.487h264.5v-.923h-264.5V91.037h264.5v-.923h-264.5V68.587h264.5v-.923h-264.5V46.136h264.5v-.923h-264.5V23.685Z" fill="#3f3d56" opacity="0.3"/>
      <path id="Path_24-2" data-name="Path 24" d="M330.708,246.748a115.521,115.521,0,0,1-19.378,12.146c-4.424,2.2-9.332,4.15-14.184,3.229s-9.209-5.879-7.727-10.59a8.373,8.373,0,0,1,6.45-5.326,14.822,14.822,0,0,1,8.56,1.235,24.614,24.614,0,0,1,11.618,10.309c1.356,2.361,2.418,5.068,4.669,6.6a13.266,13.266,0,0,0,5.929,1.716c4.9.613,9.936,1.22,14.74.061s9.407-4.483,10.632-9.271" transform="translate(-109.147 -159.346)" fill="none" stroke="#3f3d56" stroke-miterlimit="10" stroke-width="2"/>
      <path id="Path_25-2" data-name="Path 25" d="M367.772,223.933q.57,22.031-.616,44.061l10.422-1.969c3.842-.726,8.212-1.835,9.948-5.338,1.619-3.266.078-7.389-2.616-9.843s-6.285-3.626-9.759-4.731l-5.69-1.811" transform="translate(-144.727 -150.813)" fill="none" stroke="#3f3d56" stroke-miterlimit="10" stroke-width="2"/>
      <path id="Path_26-2" data-name="Path 26" d="M423.946,240.125c-3.805-.527-7.687-1.032-11.469-.354s-7.512,2.736-9.255,6.16c-3.22,6.323,1.713,14.109,7.965,17.465a25.77,25.77,0,0,0,16.991,2.558" transform="translate(-163.216 -156.776)" fill="none" stroke="#3f3d56" stroke-miterlimit="10" stroke-width="2"/>
      <path id="Path_27-2" data-name="Path 27" d="M340.276,189.821q-14.354,13.5-28.708,0a39.492,39.492,0,0,1-12.146-28.835V73.569h53v87.417a39.492,39.492,0,0,1-12.146,28.835Z" transform="translate(-113.73 -73.569)" fill="#1da1f2"/>
      <path id="Path_28-2" data-name="Path 28" d="M636.622,500.3c0,81.83-48.64,110.4-108.65,110.4-1.39,0-2.78-.02-4.16-.05-2.78-.06-5.54-.19-8.26-.38-54.16-3.83-96.23-33.87-96.23-109.97,0-78.74,100.62-178.11,108.2-185.48a.01.01,0,0,1,0-.007.01.01,0,0,1,.007,0c.29-.29.44-.43.44-.43S636.622,418.479,636.622,500.3Z" transform="translate(-230.048 -265.63)" fill="#1da1f2"/>
      <path id="Path_29-2" data-name="Path 29" d="M524.012,598.179l39.74-55.52-39.84,61.62-.1,6.37c-2.78-.06-5.54-.19-8.26-.38l4.28-81.86-.03-.64.07-.11.41-7.74-39.94-61.77,40.06,55.97.1,1.64,3.23-61.85-34.19-63.83,34.61,52.98,3.37-128.24.01-.44v.43l-.56,101.12,34.04-40.09-34.18,48.8-.9,55.38,31.79-53.15-31.92,61.3-.5,30.79,46.13-73.98-46.31,84.72Z" transform="translate(-221.577 -265.609)" fill="#3f3d56"/>
    </g>
  </g>
</svg>
