<svg xmlns="http://www.w3.org/2000/svg" xmlns:xlink="http://www.w3.org/1999/xlink" width="700.107" height="520.905" viewBox="0 0 700.107 520.905">
  <defs>
    <linearGradient id="linear-gradient" x1="0.5" y1="1" x2="0.5" gradientUnits="objectBoundingBox">
      <stop offset="0" stop-color="gray" stop-opacity="0.251"/>
      <stop offset="0.54" stop-color="gray" stop-opacity="0.122"/>
      <stop offset="1" stop-color="gray" stop-opacity="0.102"/>
    </linearGradient>
    <linearGradient id="linear-gradient-2" y2="0" xlink:href="#linear-gradient"/>
  </defs>
  <g id="undraw_time_management_30iu" transform="translate(-0.007 -0.005)">
    <path id="Path_31" data-name="Path 31" d="M151.5,116.019c-4.357,1.808-8.829,4.128-11.223,8.195-2.536,4.3-2.233,9.632-1.76,14.6,4.114,43.113,14.953,88.964-3.764,128.017-9.085,18.946-24.281,34.129-36.368,51.335s-21.212,38.688-15.6,58.93c6.853,24.733,32.429,38.445,49.669,57.479,11.284,12.444,19.2,27.566,29.724,40.658s24.956,24.625,41.764,25.394c24.173,1.113,43.841-19.762,67.543-24.6,24.281-4.951,48.731,7.649,68.419,22.73s37.6,33.353,60.535,42.769c25.334,10.407,53.891,8.815,80.56,15.068,24.281,5.7,46.634,17.82,70.74,24.281s52.36,6.07,71.036-10.434c24.342-21.583,22.427-60.029,37.973-88.58,14.441-26.527,42.708-42.364,61.735-65.816,34.237-42.209,33.117-106.723,4.047-152.629s-81.727-73.7-135.571-80.938c-24.281-3.258-49.284-2.813-72.628-10.225-62.484-19.83-99.668-90.88-163.461-105.664-40.55-9.382-79.987,6.866-114.527,26.865C210.36,110.819,182.7,103.076,151.5,116.019Z" transform="translate(-81.08 -63.86)" fill="#1da1f2" opacity="0.1"/>
    <path id="Path_32" data-name="Path 32" d="M233.778,347.69s-23.02,21.725-47.726,22.373a47.949,47.949,0,0,0-28.578,10.164,80.648,80.648,0,0,0-10.684,10.164" transform="translate(-102.467 -156.25)" fill="none" stroke="#535461" stroke-miterlimit="10" stroke-width="2"/>
    <path id="Path_33" data-name="Path 33" d="M121.718,411.341c3.318-1.686,15.985-.567,15.985-.567s-6.569,10.893-9.888,12.579a6.745,6.745,0,1,1-6.07-12.013Z" transform="translate(-92.976 -176.667)" fill="#1da1f2"/>
    <path id="Path_34" data-name="Path 34" d="M140.011,383.234c3.7.391,13.726,8.215,13.726,8.215s-11.466,5.571-15.135,5.187a6.745,6.745,0,0,1,1.41-13.4Z" transform="translate(-97.934 -167.817)" fill="#1da1f2"/>
    <path id="Path_35" data-name="Path 35" d="M185.28,359.683c2.995,2.206,7.7,14.022,7.7,14.022s-12.687-.965-15.682-3.163a6.745,6.745,0,0,1,7.979-10.859Z" transform="translate(-111.583 -159.786)" fill="#1da1f2"/>
    <path id="Path_36" data-name="Path 36" d="M224.867,350.4c3.325,1.666,9.962,12.518,9.962,12.518s-12.667,1.194-15.992-.472a6.745,6.745,0,1,1,6.03-12.046Z" transform="translate(-124.603 -156.844)" fill="#1da1f2"/>
    <path id="Path_37" data-name="Path 37" d="M167.853,405.977c1.106-3.555-2.131-15.857-2.131-15.857s-9.632,8.31-10.738,11.864a6.745,6.745,0,1,0,12.869,3.993Z" transform="translate(-105.003 -170.062)" fill="#1da1f2"/>
    <path id="Path_38" data-name="Path 38" d="M213.686,395.008c0-3.723-6.779-14.488-6.779-14.488s-6.7,10.792-6.7,14.528a6.745,6.745,0,0,0,13.49-.04Z" transform="translate(-119.857 -166.937)" fill="#1da1f2"/>
    <path id="Path_39" data-name="Path 39" d="M256.844,377.2c.621-3.669-4.236-15.425-4.236-15.425s-8.438,9.524-9.052,13.193a6.745,6.745,0,0,0,13.287,2.239Z" transform="translate(-133.951 -160.834)" fill="#1da1f2"/>
    <path id="Path_40" data-name="Path 40" d="M287.578,228.777s-27.728-15.23-35.97-38.56a47.949,47.949,0,0,0-18.461-24.072,80.649,80.649,0,0,0-12.977-7.015" transform="translate(-126.354 -94.871)" fill="none" stroke="#535461" stroke-miterlimit="10" stroke-width="2"/>
    <path id="Path_41" data-name="Path 41" d="M206.921,136.53c2.624,2.637,5.45,15.041,5.45,15.041s-12.383-2.9-15.007-5.544a6.745,6.745,0,0,1,9.557-9.5Z" transform="translate(-118.366 -86.94)" fill="#1da1f2"/>
    <path id="Path_42" data-name="Path 42" d="M239.156,144.678c.769,3.642-3.6,15.587-3.6,15.587s-8.815-9.166-9.584-12.815a6.745,6.745,0,1,1,13.186-2.779Z" transform="translate(-128.174 -88.323)" fill="#1da1f2"/>
    <path id="Path_43" data-name="Path 43" d="M275.619,180.714c-1.174,3.528-10.974,11.642-10.974,11.642s-2.981-12.363-1.808-15.9a6.752,6.752,0,1,1,12.815,4.256Z" transform="translate(-140.154 -99.005)" fill="#1da1f2"/>
    <path id="Path_44" data-name="Path 44" d="M296.55,215.647c-.56,3.676-8.849,13.328-8.849,13.328s-5.032-11.682-4.472-15.358a6.745,6.745,0,1,1,13.321,2.023Z" transform="translate(-146.867 -110.636)" fill="#1da1f2"/>
    <path id="Path_45" data-name="Path 45" d="M222.867,179.566c3.723-.04,14.434-6.907,14.434-6.907s-10.866-6.61-14.589-6.569a6.745,6.745,0,0,0,.155,13.49Z" transform="translate(-125.011 -97.136)" fill="#1da1f2"/>
    <path id="Path_46" data-name="Path 46" d="M246.94,219.9c3.534-1.153,11.7-10.906,11.7-10.906s-12.35-3.055-15.884-1.9a6.745,6.745,0,1,0,4.182,12.815Z" transform="translate(-132.114 -110.399)" fill="#1da1f2"/>
    <path id="Path_47" data-name="Path 47" d="M277.258,255.418c3.683-.54,13.382-8.768,13.382-8.768s-11.655-5.1-15.331-4.56a6.745,6.745,0,1,0,1.956,13.335Z" transform="translate(-142.332 -121.863)" fill="#1da1f2"/>
    <circle id="Ellipse_7" data-name="Ellipse 7" cx="244.163" cy="244.163" r="244.163" transform="translate(107.879 15.117)" fill="url(#linear-gradient)"/>
    <circle id="Ellipse_8" data-name="Ellipse 8" cx="240.116" cy="240.116" r="240.116" transform="translate(111.926 19.164)" fill="#1da1f2"/>
    <circle id="Ellipse_9" data-name="Ellipse 9" cx="190.879" cy="190.879" r="190.879" transform="translate(161.163 68.401)" fill="#dde1ec"/>
    <rect id="Rectangle_26" data-name="Rectangle 26" width="10.792" height="168.621" transform="translate(346.646 102.125)" fill="#535461" opacity="0.3"/>
    <g id="Group_82" data-name="Group 82" transform="translate(249.629 204.763)" opacity="0.1">
      <rect id="Rectangle_27" data-name="Rectangle 27" width="152.433" height="13.49" transform="translate(113.879 50.47)"/>
      <rect id="Rectangle_28" data-name="Rectangle 28" width="13.49" height="108.268" transform="translate(0 11.95) rotate(-62.36)"/>
      <circle id="Ellipse_10" data-name="Ellipse 10" cx="20.234" cy="20.234" r="20.234" transform="translate(82.178 36.98)"/>
    </g>
    <rect id="Rectangle_29" data-name="Rectangle 29" width="152.433" height="13.49" transform="translate(363.508 252.534)" fill="#535461"/>
    <rect id="Rectangle_30" data-name="Rectangle 30" width="108.268" height="13.49" transform="translate(255.934 202.08) rotate(27.64)" fill="#535461"/>
    <circle id="Ellipse_11" data-name="Ellipse 11" cx="20.234" cy="20.234" r="20.234" transform="translate(331.807 239.045)" fill="#535461"/>
    <g id="Group_83" data-name="Group 83" transform="translate(161.149 68.401)" opacity="0.1">
      <path id="Path_48" data-name="Path 48" d="M334.839,379.081c0-105.422,85.457-190.878,190.879-190.878a190.582,190.582,0,0,1,152.541,76.109,190.826,190.826,0,0,0-167.38-99.041C405.457,165.27,320,250.727,320,356.148a190.028,190.028,0,0,0,38.358,114.77,190.009,190.009,0,0,1-23.519-91.838Z" transform="translate(-320 -165.27)"/>
    </g>
    <path id="Path_49" data-name="Path 49" d="M788.8,220.289c-2.266-2.179-21.341,12.141-21.341,12.141s-6.792,1.241-5.173,5.9-7.116,30.763-7.116,30.763l-3.555-4.971a21.337,21.337,0,0,0-2.826-12.545c-.128-.209-.256-.411-.384-.6l.621-.216c-.236-3.184-5.328-8.033-8.033-10.407V239.33c.169-3.8,1.693-7.817,0-11.264-1.916-3.932-7.52-5.908-7.993-10.225-.283-2.577,1.457-4.9,2.226-7.386,1.835-5.935-1.976-11.992-5.618-17.1a23.919,23.919,0,0,0-4.458-5.14,21.636,21.636,0,0,0-5.355-2.86c-5.335-2.158-10.792-3.244-16.3-4.721-5.281-1.4-10.151-2.071-15.513-.31a7.629,7.629,0,0,0-3.372,1.936c-1.275,1.43-1.443,3.467-2.28,5.173-1.349,2.745-4.256,4.384-6.826,6.145s-5.146,4.175-5.16,7.21c0,4.31,4.924,7.021,6.569,11.035,1.538,3.737,0,7.9-.857,11.837a7.952,7.952,0,0,0-.1,3.905,8.391,8.391,0,0,0,1.511,2.63c1.018,1.349,2.111,2.6,3.2,3.885l-.5.2c-9.052-.931-14.872,10.562-14.872,10.562.418.088.816.189,1.207.3l-.385.5a49.07,49.07,0,0,0-6.644,11.621l-7.419,9.942s-1.619-24.861,2.266-30.453-3.555-9.011-3.555-9.011-16.188-18.022-18.434-16.471,5.5,21.132,12.289,24.241c0,0,.674,6.212-.674,10.252-.816,2.556-5.173,29.522-5.173,29.522s-3.878,22.683,13.908,11.466c11.554-7.271,19.02-19.789,22.824-27.654q.4-.83.749-1.585a18.972,18.972,0,0,1,.358,2.529l.674,25.988a39.443,39.443,0,0,1-4.087,18.562l-7.925,16.073.884.27-.533.769c-5.221,7.682-14.1,24.956,4.175,33.758l24.281,3.109-1.3,6.212s-10.023,18.953-12.937,32a95.9,95.9,0,0,1-8.411,22.993l.749.4c-.155.175-.317.357-.472.546a11.723,11.723,0,0,0-2.806,5.881l-3.292,4.667s-1.295,19.263,1.3,23.931c1.416,2.55,6.118,4.168,10.117,5.113,5.935,1.41,10.724-4.721,7.574-9.773l-.04-.067H684.5c-.674-3.136-2.738-12.869-2.064-16.565.189-1.052.364-2.1.452-3.163a11.183,11.183,0,0,1,1.255-4c.108-.209.223-.411.337-.614l.351.148c1.086.465,2.158.9,3.177,1.288-1.578,1.437-2.7,4.411-1.349,10.529,0,0,.128,15.3,1.295,17.712s14.225,5.591,16.491,3.109-1.457-11.035-1.457-11.035l-.115.081c-.749-4.957-1.673-13.834.6-17.327.917-1.41,1.808-2.867,2.6-4.229l.492-.843h0c4.222,2.1,8.687,3.689,11.129,2.59,0,0,10.67-24.861,10.023-27.964s16.491-38.223,16.491-38.223,14.549-16.188-3.231-27.344c-5.645-3.555-9.76-5.942-12.748-7.554l-2.5-13.085a47.833,47.833,0,0,1,.674-20.68l2.7-10.293h0l.223-.877s6.792-13.982,6.468-20.511a4.722,4.722,0,0,1,.169-1.5q.111.465.243.971a125.375,125.375,0,0,0,7.028,19.8c5.16,11.642,12.815,10.718,17.01,9.065a5.807,5.807,0,0,0,3.582-4.2c1.511-7.244,5.659-27.539,5.922-33.144a94.259,94.259,0,0,1,1.619-13.051C782.01,233.34,791.062,222.467,788.8,220.289Z" transform="translate(-260.39 -101.423)" fill="url(#linear-gradient-2)"/>
    <path id="Path_50" data-name="Path 50" d="M737.178,533.673s-1.423,2.853-3.372,6.279c-.762,1.349-1.612,2.8-2.482,4.2-3.082,4.93,0,20.639,0,20.639l-6.745.924-6.745-3.372-1.234-11.4V542.6l7.689-8.6,3.372-3.723Z" transform="translate(-287.951 -215.686)" fill="#f8bdc5"/>
    <g id="Group_84" data-name="Group 84" transform="translate(436.325 314.593)" opacity="0.1">
      <path id="Path_51" data-name="Path 51" d="M740.883,533.673s-1.423,2.853-3.372,6.279a83.535,83.535,0,0,1-8.62-5.3l-.594-.418L727.98,534l3.372-3.723Z" transform="translate(-727.98 -530.28)"/>
    </g>
    <path id="Path_52" data-name="Path 52" d="M769.529,428.767S753.2,463.577,753.82,466.66s-9.551,27.728-9.551,27.728c-2.32,1.093-6.583-.479-10.6-2.563a83.124,83.124,0,0,1-8.768-5.4l-.594-.418-.357-.256,26.8-74.247-23.715-17.395-1.754-1.288L714.68,385l32.375,5.855s1.126-.142,7.082,3.19c2.86,1.6,6.833,3.993,12.323,7.595C783.383,412.748,769.529,428.767,769.529,428.767Z" transform="translate(-287.326 -168.395)" fill="#5e52ad"/>
    <g id="Group_85" data-name="Group 85" transform="translate(427.354 216.605)" opacity="0.03">
      <path id="Path_53" data-name="Path 53" d="M769.529,428.767S753.2,463.577,753.82,466.66s-9.551,27.728-9.551,27.728c-2.32,1.093-6.583-.479-10.6-2.563a83.124,83.124,0,0,1-8.768-5.4l-.594-.418-.357-.256,26.8-74.247-23.715-17.395-1.754-1.288L714.68,385l32.375,5.855s1.126-.142,7.082,3.19c2.86,1.6,6.833,3.993,12.323,7.595C783.383,412.748,769.529,428.767,769.529,428.767Z" transform="translate(-714.68 -385)"/>
    </g>
    <path id="Path_54" data-name="Path 54" d="M719.641,544.425s-8.013-1.234-5.234,11.709c0,0,.121,15.176,1.234,17.536s13.557,5.544,15.709,3.082-1.389-10.933-1.389-10.933-9.085,6.623-11.554-.465S719.641,544.425,719.641,544.425Z" transform="translate(-287.046 -220.281)" fill="#5d3e53"/>
    <path id="Path_55" data-name="Path 55" d="M705.3,537.821a9.711,9.711,0,0,0-2.1,2.914,11.41,11.41,0,0,0-1.194,3.966c-.081,1.052-.25,2.1-.425,3.136-.769,4.391,2.179,17.4,2.179,17.4l-11.709,1.848-4.31-4.62L686.82,552.3a36.838,36.838,0,0,0,1.848-10.792,11.309,11.309,0,0,1,2.7-6.745,18.549,18.549,0,0,1,3.123-3.1S707.769,535.663,705.3,537.821Z" transform="translate(-278.257 -216.139)" fill="#f8bdc5"/>
    <g id="Group_86" data-name="Group 86" transform="translate(413.136 315.518)" opacity="0.1">
      <path id="Path_56" data-name="Path 56" d="M707.508,537.815a9.711,9.711,0,0,0-2.1,2.914c-4.8-2.165-9.834-4.9-11.669-5.908l-.142-.074a18.556,18.556,0,0,1,3.123-3.1S709.976,535.656,707.508,537.815Z" transform="translate(-693.6 -531.65)"/>
    </g>
    <path id="Path_57" data-name="Path 57" d="M739.488,419.527s-7.7,14.481-12.633,26.494c-3.237,7.891-9.928,26.683-14.164,38.648l-.621,1.767c-1.862,5.295-3.1,8.876-3.1,8.876a8.02,8.02,0,0,1-2.421-.358c-.728-.2-1.544-.459-2.415-.782l-.978-.371c-.971-.378-2.023-.816-3.028-1.275-4.9-2.185-10.117-5.032-12.013-6.07l-.715-.4a97.449,97.449,0,0,0,8.033-22.818c2.772-12.937,12.323-31.7,12.323-31.7l1.234-6.165-23.108-3.082c-17.408-8.7-8.95-25.853-3.979-33.468A44.951,44.951,0,0,1,684.646,385l18.487,4.047s2.914.931,9.389,3.8l2.974,1.349c3.629,1.666,8.094,3.811,13.49,6.563C747.184,409.956,739.488,419.527,739.488,419.527Z" transform="translate(-274.545 -168.395)" fill="#5e52ad"/>
    <path id="Path_58" data-name="Path 58" d="M702.9,568.543a6.543,6.543,0,0,1-7.217,9.685c-3.784-.937-8.269-2.543-9.618-5.072-2.462-4.62-1.234-23.722-1.234-23.722l3.237-4.775s-1.693,21.1,2.314,22.932,12.478.857,12.478.857Z" transform="translate(-277.51 -220.367)" fill="#5d3e53"/>
    <path id="Path_59" data-name="Path 59" d="M708.508,182.353a7.2,7.2,0,0,0-3.237,1.922c-1.214,1.416-1.349,3.44-2.172,5.133-1.282,2.7-4.047,4.35-6.5,6.07s-4.9,4.141-4.917,7.15c0,4.276,4.721,6.961,6.259,10.933,1.464,3.71,0,7.831-.816,11.736a8.193,8.193,0,0,0-.094,3.872,8.412,8.412,0,0,0,1.443,2.61c2.974,4.047,6.671,7.635,8.66,12.242,1.511,3.5,1.929,7.365,2.327,11.163.573,5.463,1.147,11.028.108,16.424a1.659,1.659,0,0,0,0,.991,1.537,1.537,0,0,0,.789.674,16.188,16.188,0,0,0,21.914-8.094c1.349-3.055,1.868-6.745,4.539-8.728a2.273,2.273,0,0,1,1.086-.492,3.177,3.177,0,0,1,1.754.587c3.467,1.875,7.669,1.929,11.534,1.16,2.334-.465,4.721-1.3,6.266-3.116,3.042-3.615,1.349-9.018,1.551-13.732.162-3.77,1.612-7.75,0-11.163-1.821-3.9-7.17-5.855-7.615-10.117-.27-2.55,1.389-4.863,2.125-7.318,1.747-5.888-1.882-11.891-5.349-16.956a23.478,23.478,0,0,0-4.242-5.092,20.364,20.364,0,0,0-5.1-2.833c-5.079-2.138-10.259-3.217-15.513-4.674C718.275,181.267,713.641,180.6,708.508,182.353Z" transform="translate(-279.839 -102.088)" fill="#85555c"/>
    <path id="Path_60" data-name="Path 60" d="M745.009,287.27H727.135V258.308a53.948,53.948,0,0,0,.931-8.431c0-.951,0-1.922,0-2.9-.169-3.453-.884-6.9-2.759-9-4.93-5.544,16.019-4.62,16.019-4.62a52.132,52.132,0,0,0,2.5,7.46,45.361,45.361,0,0,0,6,10.569,24.458,24.458,0,0,0,8.141,6.927C770.268,264.473,745.009,287.27,745.009,287.27Z" transform="translate(-290.54 -119.012)" fill="#f8bdc5"/>
    <g id="Group_87" data-name="Group 87" transform="translate(433.995 114.282)" opacity="0.1">
      <path id="Path_61" data-name="Path 61" d="M743.792,240.812a16.356,16.356,0,0,1-15.756,6.165c-.169-3.453-.883-6.9-2.759-9-4.931-5.544,16.019-4.62,16.019-4.62a52.141,52.141,0,0,0,2.5,7.46Z" transform="translate(-724.526 -233.294)"/>
    </g>
    <circle id="Ellipse_12" data-name="Ellipse 12" cx="16.329" cy="16.329" r="16.329" transform="translate(423.962 94.631)" fill="#f8bdc5"/>
    <path id="Path_62" data-name="Path 62" d="M817.54,260.6A97.055,97.055,0,0,0,816,273.541c-.25,5.551-4.2,25.678-5.645,32.861a5.7,5.7,0,0,1-3.413,4.162c-4.006,1.639-11.291,2.556-16.188-8.984a127.721,127.721,0,0,1-6.7-19.627,53.044,53.044,0,0,1-1.349-6.866l10.792-5.854a13.293,13.293,0,0,1,2.55,3.271,21.879,21.879,0,0,1,2.7,12.437l3.372,4.93s8.316-25.88,6.745-30.5,4.93-5.854,4.93-5.854,18.177-14.164,20.336-12.013S827.7,254.439,817.54,260.6Z" transform="translate(-309.471 -121.612)" fill="#f8bdc5"/>
    <path id="Path_63" data-name="Path 63" d="M681.814,268.679a72.849,72.849,0,0,1-2.9,7.082c-3.629,7.8-10.738,20.234-21.745,27.424-16.943,11.088-13.247-11.4-13.247-11.4s4.148-26.736,4.93-29.266c1.234-4.006.614-10.164.614-10.164-6.468-3.082-13.861-22.487-11.709-24.032s17.537,16.329,17.537,16.329,7.089,3.372,3.372,8.937-2.158,30.19-2.158,30.19l7.129-9.841a49.169,49.169,0,0,1,6.333-11.52c1.349-1.841,2.293-2.954,2.293-2.954Z" transform="translate(-262.162 -117.364)" fill="#f8bdc5"/>
    <g id="Group_88" data-name="Group 88" transform="translate(473.226 147.612)" opacity="0.1">
      <path id="Path_64" data-name="Path 64" d="M796.051,285.988c-2.266.836-11.041,4.377-12.013,9.443a53.064,53.064,0,0,1-1.349-6.866l10.792-5.855a13.3,13.3,0,0,1,2.57,3.278Z" transform="translate(-782.69 -282.71)"/>
    </g>
    <g id="Group_89" data-name="Group 89" transform="translate(407.808 142.081)" opacity="0.1">
      <path id="Path_65" data-name="Path 65" d="M697.544,283.744a72.849,72.849,0,0,1-2.9,7.082c-.418-3.049-2.138-10.846-8.944-13.362,1.349-1.841,2.293-2.954,2.293-2.954Z" transform="translate(-685.7 -274.51)"/>
    </g>
    <g id="Group_90" data-name="Group 90" transform="translate(436.595 130.865)" opacity="0.1">
      <path id="Path_66" data-name="Path 66" d="M746.254,295.273H728.38V266.311a53.97,53.97,0,0,0,.931-8.431c3.676,3.548,2.765,9.045,2.765,9.045l9.551,21.583,4.627-19.081-1.538-2.462,6.34-7.541a24.455,24.455,0,0,0,8.141,6.927C771.513,272.476,746.254,295.273,746.254,295.273Z" transform="translate(-728.38 -257.88)"/>
    </g>
    <g id="Group_91" data-name="Group 91" transform="translate(407.349 216.605)" opacity="0.1">
      <path id="Path_67" data-name="Path 67" d="M744.766,395.792s-14-1.113-26.15-1.639L717.4,394.1c-1.727-.067-3.372-.121-4.984-.162-11.79-.283-25.124-4.4-27.391-5.126A45,45,0,0,1,687.772,385l18.488,4.047s2.914.931,9.389,3.8L705.025,385l32.375,5.855s1.126-.142,7.082,3.19Z" transform="translate(-685.02 -385)"/>
    </g>
    <path id="Path_68" data-name="Path 68" d="M731.98,270.614l-1.538-2.462,6.839-8.181s14.1,6.913,17.8,5.4c0,0,8.937,7.419,9.24,11.709,0,0-12.937,4.31-12.633,10.792S745.55,308.2,745.55,308.2l-2.7,11.075a49.3,49.3,0,0,0-.675,20.5l2.462,13.712s-19.412-1.538-32.375-1.848-27.728-5.234-27.728-5.234l7.561-15.911a40.469,40.469,0,0,0,3.9-18.4l-.675-25.758s-.614-12.937-10.792-15.095c0,0,5.544-11.4,14.164-10.475,0,0,12.559-5.241,16.289-1.7s2.813,9.092,2.813,9.092l9.551,21.583Z" transform="translate(-277.511 -127.002)" fill="#ed677b"/>
    <g id="Group_92" data-name="Group 92" transform="translate(423.937 87.442)" opacity="0.1">
      <path id="Path_69" data-name="Path 69" d="M714.184,213.654c2.475,0,4.418-2.624,6.893-2.489a7.022,7.022,0,0,1,3.44,1.619,41.986,41.986,0,0,0,13.159,6.07,11.479,11.479,0,0,0,5.6.4,4.773,4.773,0,0,0,3.764-3.77,6.425,6.425,0,0,0-.324-2.448,30.264,30.264,0,0,0-13.179-17.395c-2.563-1.572-5.693-2.772-8.532-1.787-2.563.884-4.216,3.285-6.07,5.261a23.07,23.07,0,0,1-4.721,3.831c-1.349.816-3.372,1.349-4.148,2.846C708.6,208.588,710.9,213.627,714.184,213.654Z" transform="translate(-709.613 -193.5)"/>
    </g>
    <path id="Path_70" data-name="Path 70" d="M714.184,212.744c2.475,0,4.418-2.624,6.893-2.489a7.022,7.022,0,0,1,3.44,1.619,41.986,41.986,0,0,0,13.159,6.07,11.479,11.479,0,0,0,5.6.4,4.773,4.773,0,0,0,3.764-3.77,6.425,6.425,0,0,0-.324-2.448,30.264,30.264,0,0,0-13.179-17.395c-2.563-1.572-5.693-2.772-8.532-1.787-2.563.884-4.216,3.285-6.07,5.261a23.073,23.073,0,0,1-4.721,3.831c-1.349.816-3.372,1.349-4.148,2.846C708.6,207.705,710.9,212.71,714.184,212.744Z" transform="translate(-285.676 -105.763)" fill="#85555c"/>
    <path id="Path_71" data-name="Path 71" d="M705.32,326.79s15.095,5.544,24.956,1.234l4.93.31s8.2,5.747,16.862,3.177" transform="translate(-284.279 -149.447)" opacity="0.05"/>
    <path id="Path_72" data-name="Path 72" d="M810.529,313.09s-2.462,5.854-1.234,7.7" transform="translate(-318.013 -144.987)" opacity="0.05"/>
    <path id="Path_73" data-name="Path 73" d="M665.58,310.35s1.234,5.854,0,7.7" transform="translate(-271.343 -144.095)" opacity="0.05"/>
    <path id="Path_74" data-name="Path 74" d="M1025.292,508.14s-28.22,28.22-12.289,70.092-27.3,111.505-27.3,111.505.465-.067,1.349-.216c57.958-10.232,86.752-76.513,54.525-125.757C1029.562,545.452,1019.728,523.977,1025.292,508.14Z" transform="translate(-375.547 -208.48)" fill="#1da1f2"/>
    <path id="Path_75" data-name="Path 75" d="M1025.292,508.84s-28.22,28.22-12.289,70.092-27.3,111.5-27.3,111.5.465-.067,1.349-.216c57.958-10.232,86.752-76.513,54.525-125.757C1029.562,546.152,1019.728,524.677,1025.292,508.84Z" transform="translate(-375.547 -208.707)" opacity="0.1"/>
    <path id="Path_76" data-name="Path 76" d="M1025.289,508.14s-15.931,34.587,0,62.808,2.7,107.411-39.6,118.79" transform="translate(-375.544 -208.48)" fill="none" stroke="#535461" stroke-miterlimit="10" stroke-width="1"/>
    <path id="Path_77" data-name="Path 77" d="M1072.072,677.19s-32.2-5.126-35.134,23.728S975,733.772,975,733.772l1.106.735c48.7,31.97,95.257,20.363,88.236-22.089C1061.752,696.642,1061.968,680.792,1072.072,677.19Z" transform="translate(-372.064 -263.394)" fill="#1da1f2"/>
    <path id="Path_78" data-name="Path 78" d="M1072.085,677.36s-25,5.484-22.932,28.214-37.1,49.972-74.112,28.375" transform="translate(-372.077 -263.564)" fill="none" stroke="#535461" stroke-miterlimit="10" stroke-width="1"/>
    <path id="Path_79" data-name="Path 79" d="M1028.866,750.792s-25.361-5.072-32.126-11.837-37.2-18.6-40.577-10.117-45.649,37.2-16.909,42.27,67.63,6.745,76.082,3.372S1028.866,750.792,1028.866,750.792Z" transform="translate(-357.187 -279.361)" fill="#a8a8a8"/>
    <path id="Path_80" data-name="Path 80" d="M939.257,779.874c28.746,5.072,67.63,6.745,76.082,3.372,6.441-2.577,10.913-14.947,12.68-20.707l.843.175s-5.072,20.288-13.523,23.668S968,788.076,939.257,783.01c-8.3-1.464-10.67-4.9-9.773-9.254C930.185,776.6,933.079,778.781,939.257,779.874Z" transform="translate(-357.19 -291.291)" opacity="0.2"/>
  </g>
</svg>
